<?xml version="1.0" encoding="utf-8"?>
<!-- Generator: Adobe Illustrator 26.1.0, SVG Export Plug-In . SVG Version: 6.00 Build 0)  -->
<svg version="1.1" id="Capa_1" xmlns="http://www.w3.org/2000/svg" xmlns:xlink="http://www.w3.org/1999/xlink" x="0px" y="0px"
	 viewBox="0 0 529.83 546.22" style="enable-background:new 0 0 529.83 546.22;" xml:space="preserve">
<style type="text/css">
	.st0{fill:url(#SVGID_1_);}
	.st1{fill:#0771A9;}
	.st2{fill:url(#SVGID_00000098209350399041721260000008724394407233876393_);}
	.st3{fill:#FFFFFF;}
	.st4{fill:url(#SVGID_00000155138048508208842040000002215076702971565236_);}
	.st5{fill:url(#SVGID_00000018198793748386067410000000993607721135499929_);}
	.st6{fill:url(#SVGID_00000147215118347358231750000011623792865054028729_);}
	.st7{fill:#13597A;}
	.st8{opacity:0.44;fill:#DFF1F7;}
	.st9{fill:#15688D;}
	.st10{fill:#1C8ABA;}
	.st11{fill:#FAFAFA;}
</style>
<linearGradient id="SVGID_1_" gradientUnits="userSpaceOnUse" x1="318.0714" y1="511.8882" x2="266.3852" y2="72.6479">
	<stop  offset="0" style="stop-color:#FFFFFF"/>
	<stop  offset="0.1523" style="stop-color:#DEC7C5"/>
	<stop  offset="0.3152" style="stop-color:#BE918F"/>
	<stop  offset="0.4743" style="stop-color:#A46561"/>
	<stop  offset="0.6259" style="stop-color:#8F433E"/>
	<stop  offset="0.7678" style="stop-color:#812A25"/>
	<stop  offset="0.8964" style="stop-color:#781B15"/>
	<stop  offset="1" style="stop-color:#751610"/>
</linearGradient>
<path class="st0" d="M307.69,321.66c0,0-31.97,32.61-30.6,55.13c1.37,22.53-0.04,3.6-0.04,3.6s-67.19-104.05-57.84-184.04
	c0,0,12.32-30.76-7.62-37.13c0,0-22.91,23.43-51.77-5.05c0,0-15.7-11.08-44.13-7.26c0,0-6.3-106.08,98.69-101.83
	c0,0,41.34,8.06,61.7,56.86c0,0,6.36,23.76,41.16,28c0,0,55.16-22.49,101.83,19.52c0,0,42.86,54.74,10.18,97.59
	c0,0-25.03,19.09-50.49,27.16c-25.46,8.06-2.12-0.42-2.12-0.42S326.15,290.18,307.69,321.66z"/>
<path class="st1" d="M291.21,405.27c0,0-138.47-54.43-172.09-213.72c0,0-45.22,7.6,25.02,72.34c0,0-39.83-7.22-57.84-44.72
	c0,0-11.28-18.51,1.39-40.02c10.1-17.16,29.59-26.4,49.43-24.78c5.55,0.45,11.1,1.41,15.46,3.24c2.71,1.14,4.98,3.1,6.58,5.57
	c0.05,0.08,0.1,0.15,0.15,0.23c16.17,24.82,29.15,21.83,49.99,8.14c8.53-5.6,15.11-8.02,18.54-8.94c10.54-2.8,23.85,1.54,26.81,3.34
	c10.14,6.14,17.29,11.77,20.74,28.82c2.02,9.95-2.46,23.68-9.2,33.42c-9.5,13.7-13.68,16.56-32.35,33.55c0,0,15.64-14.1,21.61-29.35
	c4.94-12.61,4.05-27.98-0.59-32.06c-2.48-2.18-5.72-3.82-9.02-3.96c-0.03,0-0.06,0-0.1,0c-7.08-0.29-13.5,4.24-15.86,10.93
	C223.52,225.36,223.5,274.85,291.21,405.27z"/>
<linearGradient id="SVGID_00000145048837746868623130000001312062102321948304_" gradientUnits="userSpaceOnUse" x1="158.5349" y1="-74.4625" x2="215.6014" y2="127.6261">
	<stop  offset="0" style="stop-color:#FFFFFF"/>
	<stop  offset="0.0926" style="stop-color:#F8DFDF"/>
	<stop  offset="0.2699" style="stop-color:#EBA7A6"/>
	<stop  offset="0.4422" style="stop-color:#E17878"/>
	<stop  offset="0.6053" style="stop-color:#D95453"/>
	<stop  offset="0.757" style="stop-color:#D33A39"/>
	<stop  offset="0.893" style="stop-color:#CF2A2A"/>
	<stop  offset="1" style="stop-color:#CE2524"/>
</linearGradient>
<path style="fill:url(#SVGID_00000145048837746868623130000001312062102321948304_);" d="M113.51,151.13c0,0-9.39-62.61,41.69-97.25
	c19.51-13.23,49.16-19.13,71.17-10.68c15.72,6.04,28.82,10.67,59.5,66.17c3.26,5.9,12.03,12.95,18.68,14.04
	c4.32,0.71,8.21,2.08,18.28-1.1c0,0-27.37,13.68-46.56-9.47c-3.86-4.65-11.87-14.33-17.28-20.94
	c-9.74-11.91-22.01-22.21-36.42-29.42c-11.1-5.55-29.48-7.54-37.42-6.8c-17.34,1.6-28.91,10.08-29.48,10.47
	c-19.48,13.34-21.37,34.62-17.96,55.43c1.79,10.9,5.57,23.32,13.43,32.43C151.13,154.01,136.73,145.53,113.51,151.13z"/>
<path class="st3" d="M179.74,286.12c0,0,5.55,1.75,21.56,1.75c0,0,44.29,82.71,89.92,117.4c0,0-44.02-30.95-91.78-113.93
	C199.43,291.34,183.91,289.36,179.74,286.12z"/>
<linearGradient id="SVGID_00000040555080274527486430000015581214504871902095_" gradientUnits="userSpaceOnUse" x1="348.2774" y1="-12.5432" x2="336.9634" y2="201.4609">
	<stop  offset="0" style="stop-color:#FFFFFF"/>
	<stop  offset="0.282" style="stop-color:#ECAAAA"/>
	<stop  offset="0.5413" style="stop-color:#DC6262"/>
	<stop  offset="0.7264" style="stop-color:#D23635"/>
	<stop  offset="0.8196" style="stop-color:#CE2524"/>
</linearGradient>
<path style="fill:url(#SVGID_00000040555080274527486430000015581214504871902095_);" d="M230.64,160.07
	c0,0,39.03-16.97,69.37-28.02c0,0,63.58-28.33,109.94,5.85c14.38,10.6,24.54,25.87,30.08,42.86c7.28,22.33,11.26,57.82-23.89,80.97
	c-5.13,3.38-10.69,6.03-16.44,8.18c-9.73,3.64-29.15,10.95-38.21,14.73c0,0-31.33,9.44-53.81,37.02c0,0,14.91-23.56,47.43-40.45
	c3.04-1.58,6.18-2.93,9.39-4.11c14.87-5.47,73.14-30.78,63.9-88.93c-3.58-22.56-18.29-42.16-39.8-49.87
	c-23.48-8.41-61.87-1.86-110.81,48.84c0,0-1-7.07-9.94-16.81c-3.88-4.23-12.49-8.24-15.74-9.34
	C250.63,160.5,243.45,157.53,230.64,160.07z"/>
<linearGradient id="SVGID_00000113335814006059727010000005279777904558190252_" gradientUnits="userSpaceOnUse" x1="172.8153" y1="-38.5427" x2="218.391" y2="122.8536">
	<stop  offset="0" style="stop-color:#FFFFFF"/>
	<stop  offset="0.1347" style="stop-color:#EAD6D5"/>
	<stop  offset="0.3701" style="stop-color:#C89590"/>
	<stop  offset="0.5828" style="stop-color:#AD615A"/>
	<stop  offset="0.7653" style="stop-color:#993B33"/>
	<stop  offset="0.9104" style="stop-color:#8D241B"/>
	<stop  offset="1" style="stop-color:#891C12"/>
</linearGradient>
<path style="fill:url(#SVGID_00000113335814006059727010000005279777904558190252_);" d="M154.6,69.89c0,0,32.55-31.62,83.72,4.46
	c1.13,0.8,2.19,1.69,3.24,2.58c7.76,6.56,17.04,16.12,25.83,28.17c0,0,9,14.21,20.01,18.61c0,0-10.41-1.8-22.41-16.81
	c0,0-16.74-18.08-29.52-24.01c0,0-65.53-35.02-94.14,10.61C141.33,93.5,142.26,81.69,154.6,69.89z"/>
<linearGradient id="SVGID_00000062892456847706097490000016445579338724667051_" gradientUnits="userSpaceOnUse" x1="320.1897" y1="-20.4162" x2="354.6068" y2="196.5754">
	<stop  offset="0" style="stop-color:#FFFFFF"/>
	<stop  offset="0.2444" style="stop-color:#DEBDBB"/>
	<stop  offset="0.5113" style="stop-color:#BD7B77"/>
	<stop  offset="0.7354" style="stop-color:#A44B46"/>
	<stop  offset="0.9048" style="stop-color:#962D27"/>
	<stop  offset="1" style="stop-color:#90221C"/>
</linearGradient>
<path style="fill:url(#SVGID_00000062892456847706097490000016445579338724667051_);" d="M282.8,186.35c0,0,50.03-56.43,98.05-46.83
	c0,0,29.62,5.2,41.22,41.62c0,0,13.27,47.92-24.41,72.84c0,0,29.22-37.22,9.61-66.84C407.27,187.15,370.45,118.31,282.8,186.35z"/>
<path class="st7" d="M291.21,405.27c0,0-22.68-44.56-29.62-62.57c0,0-27.59-63.11-30.95-88.71c0,0-5.34-25.9-1.75-42.55
	c1.74-8.07,8.44-14.29,16.66-15.06c0.1-0.01,0.2-0.02,0.29-0.03c0,0-31.75-0.15-25.94,45.13c1.05,8.17,2.95,16.2,5.52,24.03
	C232.22,286.15,251.2,337.44,291.21,405.27z"/>
<path class="st8" d="M119.12,191.55c0,0,7,41.02,33.51,88.17c0,0-27.67-47.41-27.7-91.12C124.92,188.61,124.05,189.96,119.12,191.55
	z"/>
<circle class="st1" cx="189.32" cy="136.09" r="37.59"/>
<g>
	<path class="st9" d="M46.22,441.4c0.36,3.42,1.73,6.43,5.5,6.43c3.63,0,4.98-2.27,4.98-5.34c0-3.38-1.67-5.35-6.87-7.84
		c-7.05-3.35-9.81-6.31-9.81-12.43c0-6.61,4.25-11.12,11.7-11.12c9.27,0,11.55,6.27,11.67,11.63h-7.23
		c-0.24-2.36-0.85-5.82-4.58-5.82c-2.92,0-4.22,1.89-4.22,4.69c0,2.97,1.32,4.35,6.15,6.6c7.39,3.42,10.71,6.73,10.71,13.63
		c0,6.47-4.01,11.82-12.71,11.82c-9.47,0-12.36-6.06-12.62-12.24H46.22z"/>
	<path class="st9" d="M81.41,411.74v28.34c0,3.38,0.84,7.38,5.37,7.38c4.39,0,5.33-3.38,5.33-7.33v-28.39h7.39v28.5
		c0,7.4-2.89,13.41-12.84,13.41c-9.79,0-12.65-5.65-12.65-13.41v-28.5H81.41z"/>
	<path class="st9" d="M111.09,411.74h12.39c6.81,0,11.9,4.08,11.9,12.25c0,7.96-4.62,12.19-12.47,12.19h-4.43v16.75h-7.39V411.74z
		 M118.48,430.26h3.6c4.09,0,5.9-2.03,5.9-6.38c0-4.12-2.13-6.17-5.51-6.17h-4V430.26z"/>
	<path class="st9" d="M165.69,434.62h-13.22v11.96h14.84l-0.91,6.35h-21.22v-41.19h21.13v6.46h-13.84v10.03h13.22V434.62z"/>
	<path class="st9" d="M184.25,435.37v17.56h-7.33v-41.19h12.61c7.49,0,11.73,3.9,11.73,11.25c0,5.96-3.19,8.53-5.34,9.38
		c3.19,1.49,4.7,4.2,4.7,10.29v1.64c0,4.68,0.22,6.43,0.56,8.63h-7.13c-0.6-1.89-0.71-5.15-0.71-8.7v-1.5
		c0-5.51-1.26-7.37-5.92-7.37H184.25z M184.25,429.4h3.46c4.45,0,6.2-1.92,6.2-6.08c0-3.55-1.69-5.6-5.47-5.6h-4.19V429.4z"/>
	<path class="st10" d="M217.56,441.4c0.36,3.42,1.73,6.43,5.5,6.43c3.63,0,4.98-2.27,4.98-5.34c0-3.38-1.67-5.35-6.87-7.84
		c-7.05-3.35-9.81-6.31-9.81-12.43c0-6.61,4.25-11.12,11.7-11.12c9.27,0,11.55,6.27,11.67,11.63h-7.23
		c-0.24-2.36-0.85-5.82-4.58-5.82c-2.92,0-4.22,1.89-4.22,4.69c0,2.97,1.32,4.35,6.15,6.6c7.39,3.42,10.71,6.73,10.71,13.63
		c0,6.47-4.01,11.82-12.71,11.82c-9.47,0-12.36-6.06-12.62-12.24H217.56z"/>
	<path class="st10" d="M266.28,434.62h-13.22v11.96h14.84l-0.91,6.35h-21.22v-41.19h21.13v6.46h-13.84v10.03h13.22V434.62z"/>
	<path class="st10" d="M302.29,452.94h-5.62c-0.18-1.26-0.3-2.18-0.35-3.51c-1.84,3.26-4.7,4.21-8.18,4.21
		c-8.6,0-11.72-7.66-11.72-21.05c0-15.04,5.08-21.51,13.92-21.51c11.16,0,11.78,9.57,11.9,12.01h-7.29
		c-0.12-1.66-0.48-5.77-4.83-5.77c-4.75,0-6.08,6.33-6.08,15.25c0,9.6,1.13,14.88,5.83,14.88c3.91,0,5.09-3,5.09-9.07v-2.31h-5.55
		v-6.29h12.87V452.94z"/>
	<path class="st10" d="M321.12,411.74v28.34c0,3.38,0.84,7.38,5.37,7.38c4.39,0,5.33-3.38,5.33-7.33v-28.39h7.39v28.5
		c0,7.4-2.89,13.41-12.84,13.41c-9.79,0-12.65-5.65-12.65-13.41v-28.5H321.12z"/>
	<path class="st10" d="M358.14,435.37v17.56h-7.33v-41.19h12.61c7.49,0,11.73,3.9,11.73,11.25c0,5.96-3.19,8.53-5.34,9.38
		c3.19,1.49,4.7,4.2,4.7,10.29v1.64c0,4.68,0.22,6.43,0.55,8.63h-7.13c-0.6-1.89-0.71-5.15-0.71-8.7v-1.5
		c0-5.51-1.26-7.37-5.92-7.37H358.14z M358.14,429.4h3.46c4.45,0,6.2-1.92,6.2-6.08c0-3.55-1.7-5.6-5.47-5.6h-4.19V429.4z"/>
	<path class="st10" d="M411.58,432.02c0,15.06-4.09,21.62-13.59,21.62c-8.87,0-13.19-6.46-13.19-21.71
		c0-14.86,5.03-20.85,13.53-20.85C407.31,411.09,411.58,417.72,411.58,432.02z M392.36,431.87c0,9.77,1.48,15.59,5.8,15.59
		c4.55,0,5.85-5.38,5.85-15.57c0-9.57-1.38-14.56-5.86-14.56C393.75,417.33,392.36,422.69,392.36,431.87z"/>
	<path class="st10" d="M427.56,441.4c0.36,3.42,1.73,6.43,5.5,6.43c3.63,0,4.98-2.27,4.98-5.34c0-3.38-1.67-5.35-6.87-7.84
		c-7.05-3.35-9.81-6.31-9.81-12.43c0-6.61,4.25-11.12,11.7-11.12c9.27,0,11.55,6.27,11.67,11.63h-7.23
		c-0.24-2.36-0.84-5.82-4.58-5.82c-2.92,0-4.22,1.89-4.22,4.69c0,2.97,1.32,4.35,6.15,6.6c7.39,3.42,10.71,6.73,10.71,13.63
		c0,6.47-4.01,11.82-12.71,11.82c-9.47,0-12.36-6.06-12.62-12.24H427.56z"/>
</g>
<g>
	<path class="st11" d="M192.12,476.72l-0.19,0.79c-0.63,0.14-1.15,0.21-1.56,0.21c-0.39,0-1.02-0.04-1.92-0.12
		c-0.67-0.06-1.27-0.08-1.8-0.08c-0.92,0-1.86,0.08-2.84,0.25l0.19-0.76c0.93-0.09,1.6-0.28,2.03-0.58c0.3-0.21,0.56-0.57,0.78-1.08
		s0.71-2.29,1.47-5.34l1.76-7.3l0.1-0.34c-0.54-0.03-0.95-0.04-1.23-0.04c-1.7,0-3.05,0.18-4.04,0.55c-1,0.37-1.75,0.9-2.25,1.6
		s-0.75,1.45-0.75,2.26c0,0.29,0.05,0.55,0.15,0.79c0.07,0.17,0.28,0.43,0.61,0.8c0.31,0.34,0.47,0.65,0.47,0.94
		c0,0.25-0.09,0.46-0.28,0.63c-0.18,0.17-0.4,0.26-0.66,0.26c-0.39,0-0.7-0.18-0.94-0.55c-0.35-0.54-0.52-1.23-0.52-2.07
		c0-1.12,0.35-2.21,1.04-3.27c0.69-1.06,1.65-1.87,2.86-2.45c1.21-0.58,2.69-0.87,4.42-0.87c0.83,0,2.14,0.12,3.95,0.36
		c1.29,0.17,2.22,0.25,2.8,0.25s0.99-0.1,1.23-0.29c0.24-0.19,0.36-0.45,0.36-0.77c0-0.06-0.01-0.19-0.04-0.39
		c-0.03-0.17-0.04-0.29-0.04-0.34c0-0.25,0.08-0.45,0.25-0.62c0.17-0.17,0.36-0.25,0.59-0.25c0.28,0,0.5,0.1,0.68,0.3
		s0.27,0.47,0.27,0.81c0,0.7-0.37,1.3-1.11,1.81c-0.74,0.5-1.99,0.76-3.73,0.76c-0.62,0-1.29-0.03-2-0.08
		c-0.09,0.33-0.38,1.45-0.87,3.36l-1.2,4.77l-0.73,2.91l-0.76,3.32c0.62,0.07,1.12,0.11,1.53,0.11
		C190.81,476.95,191.45,476.87,192.12,476.72z"/>
	<path class="st11" d="M203.55,466.27h1.96l-1.29,4.82c-0.76,2.8-1.14,4.39-1.14,4.77c0,0.17,0.04,0.31,0.12,0.4
		c0.08,0.09,0.17,0.14,0.28,0.14c0.16,0,0.34-0.07,0.55-0.21c0.3-0.21,0.88-0.74,1.72-1.6l0.45,0.51c-1.85,1.92-3.21,2.88-4.08,2.88
		c-0.29,0-0.54-0.11-0.75-0.34c-0.21-0.22-0.31-0.54-0.31-0.96c0-0.48,0.1-1.12,0.3-1.92c-0.82,0.94-1.83,1.76-3.03,2.47
		c-0.8,0.47-1.49,0.7-2.08,0.7c-0.32,0-0.57-0.11-0.76-0.32c-0.18-0.21-0.28-0.55-0.28-1.01c0-0.36,0.04-0.75,0.12-1.16
		c0.12-0.58,0.42-1.74,0.91-3.49c0.62-2.22,0.92-3.54,0.92-3.99c0-0.26-0.09-0.39-0.28-0.39c-0.17,0-0.39,0.08-0.68,0.25
		s-0.77,0.58-1.46,1.23l-0.61-0.48c1.23-1.1,2.17-1.83,2.82-2.17s1.17-0.52,1.56-0.52c0.22,0,0.4,0.08,0.54,0.24
		s0.21,0.41,0.21,0.75c0,0.63-0.33,2.19-0.99,4.68c-0.59,2.24-0.88,3.51-0.88,3.82c0,0.19,0.06,0.36,0.19,0.5
		c0.12,0.14,0.26,0.21,0.41,0.21c0.51,0,1.24-0.42,2.19-1.27s1.56-1.82,1.86-2.9L203.55,466.27z"/>
	<path class="st11" d="M218,465.92c0.82,0,1.45,0.16,1.89,0.48c0.45,0.32,0.67,0.68,0.67,1.09c0,0.25-0.09,0.46-0.28,0.65
		c-0.19,0.18-0.42,0.28-0.68,0.28c-0.17,0-0.33-0.04-0.45-0.12c-0.13-0.08-0.31-0.27-0.55-0.59c-0.45-0.6-0.9-0.9-1.34-0.9
		c-0.38,0-0.71,0.14-1,0.43c-0.29,0.29-0.43,0.65-0.43,1.08c0,0.38,0.09,0.74,0.28,1.09c0.18,0.35,0.65,0.92,1.39,1.71
		c1.02,1.08,1.53,2.11,1.53,3.08s-0.41,1.82-1.24,2.55s-1.89,1.09-3.2,1.09c-1.09,0-1.91-0.22-2.44-0.67
		c-0.53-0.45-0.8-0.99-0.8-1.65c0-0.32,0.1-0.59,0.3-0.8c0.2-0.21,0.45-0.32,0.74-0.32c0.26,0,0.48,0.08,0.66,0.25
		s0.28,0.37,0.28,0.6c0,0.09-0.01,0.21-0.02,0.36c-0.01,0.12-0.01,0.22-0.01,0.3c0,0.3,0.13,0.56,0.38,0.77
		c0.25,0.21,0.59,0.32,1.02,0.32c0.49,0,0.93-0.08,1.3-0.25c0.38-0.17,0.67-0.43,0.88-0.77c0.21-0.34,0.32-0.69,0.32-1.03
		c0-0.33-0.1-0.66-0.3-0.99c-0.2-0.33-0.64-0.88-1.33-1.64c-0.96-1.06-1.43-2.09-1.43-3.07c0-0.9,0.36-1.69,1.09-2.36
		C215.96,466.25,216.88,465.92,218,465.92z"/>
	<path class="st11" d="M229.64,465.68l0.91-0.19l-1.03,3.49c-0.41,1.39-0.8,2.99-1.17,4.79c-0.2,0.98-0.3,1.62-0.3,1.9
		c0,0.28,0.11,0.43,0.34,0.43c0.15,0,0.38-0.1,0.7-0.29c0.57-0.34,1.12-0.76,1.64-1.27l0.44,0.54c-1.05,0.96-1.72,1.53-2.01,1.74
		c-0.59,0.4-1.15,0.7-1.68,0.9c-0.35,0.13-0.69,0.19-1.02,0.19c-0.24,0-0.42-0.05-0.54-0.17c-0.12-0.11-0.18-0.27-0.18-0.48
		c0-0.14,0.04-0.33,0.11-0.56l0.55-1.87c-0.79,0.95-1.73,1.76-2.82,2.44c-0.67,0.42-1.29,0.63-1.85,0.63
		c-0.53,0-0.94-0.19-1.23-0.56c-0.39-0.51-0.58-1.17-0.58-1.98c0-0.97,0.26-2.06,0.78-3.25c0.52-1.19,1.21-2.28,2.09-3.25
		c0.87-0.97,1.79-1.69,2.76-2.15c0.74-0.35,1.7-0.52,2.87-0.52c0.29,0,0.59,0.02,0.9,0.05L229.64,465.68z M227.93,467.79
		c-0.5-0.1-0.91-0.15-1.25-0.15c-0.83,0-1.55,0.23-2.16,0.68c-0.62,0.45-1.19,1.27-1.72,2.45c-0.53,1.18-0.79,2.36-0.79,3.53
		c0,0.62,0.11,1.07,0.32,1.35c0.21,0.28,0.49,0.41,0.83,0.41c0.63,0,1.31-0.34,2.04-1.03c0.73-0.68,1.26-1.67,1.6-2.96
		L227.93,467.79z"/>
	<path class="st11" d="M237.09,474.18l0.47,0.5c-0.72,0.81-1.56,1.54-2.54,2.21c-0.98,0.67-1.78,1-2.42,1
		c-0.28,0-0.52-0.11-0.7-0.32c-0.18-0.21-0.28-0.51-0.28-0.89c0-0.73,0.28-2.26,0.85-4.57l1.49-6.05c0.54-2.19,1-3.65,1.36-4.4
		c0.57-1.12,1.37-2,2.42-2.62s2.14-0.93,3.29-0.93c0.39,0,0.7,0.1,0.93,0.29c0.23,0.19,0.34,0.42,0.34,0.69
		c0,0.3-0.11,0.54-0.33,0.73s-0.54,0.28-0.96,0.28c-0.27,0-0.66-0.05-1.17-0.14c-0.44-0.07-0.85-0.11-1.22-0.11
		s-0.66,0.08-0.85,0.23c-0.26,0.22-0.5,0.68-0.72,1.38c-0.21,0.7-0.56,2.09-1.05,4.17l-1.37,5.77c-0.68,2.89-1.02,4.4-1.02,4.53
		c0,0.29,0.11,0.44,0.32,0.44c0.2,0,0.5-0.12,0.88-0.36C235.56,475.54,236.33,474.93,237.09,474.18z"/>
	<path class="st11" d="M246.7,466.27h1.96l-1.29,4.82c-0.76,2.8-1.14,4.39-1.14,4.77c0,0.17,0.04,0.31,0.12,0.4
		c0.08,0.09,0.17,0.14,0.28,0.14c0.16,0,0.34-0.07,0.55-0.21c0.3-0.21,0.88-0.74,1.72-1.6l0.45,0.51c-1.85,1.92-3.21,2.88-4.08,2.88
		c-0.29,0-0.54-0.11-0.75-0.34c-0.21-0.22-0.31-0.54-0.31-0.96c0-0.48,0.1-1.12,0.3-1.92c-0.82,0.94-1.83,1.76-3.03,2.47
		c-0.8,0.47-1.49,0.7-2.08,0.7c-0.32,0-0.57-0.11-0.76-0.32c-0.18-0.21-0.28-0.55-0.28-1.01c0-0.36,0.04-0.75,0.12-1.16
		c0.12-0.58,0.42-1.74,0.91-3.49c0.62-2.22,0.92-3.54,0.92-3.99c0-0.26-0.09-0.39-0.28-0.39c-0.17,0-0.39,0.08-0.67,0.25
		c-0.29,0.17-0.77,0.58-1.46,1.23l-0.61-0.48c1.23-1.1,2.17-1.83,2.82-2.17s1.17-0.52,1.56-0.52c0.22,0,0.4,0.08,0.54,0.24
		s0.21,0.41,0.21,0.75c0,0.63-0.33,2.19-0.99,4.68c-0.59,2.24-0.88,3.51-0.88,3.82c0,0.19,0.06,0.36,0.19,0.5
		c0.12,0.14,0.26,0.21,0.41,0.21c0.51,0,1.24-0.42,2.19-1.27s1.57-1.82,1.86-2.9L246.7,466.27z"/>
	<path class="st11" d="M260.24,474.65l0.39,0.52c-1.23,1.04-2.15,1.73-2.74,2.07c-0.83,0.47-1.48,0.7-1.96,0.7
		c-0.22,0-0.4-0.06-0.54-0.19s-0.21-0.26-0.21-0.42s0.05-0.41,0.15-0.77l0.48-1.68c-1.1,1.19-2.02,1.99-2.76,2.41
		c-0.74,0.42-1.4,0.63-1.98,0.63c-0.49,0-0.9-0.21-1.23-0.64c-0.33-0.43-0.5-1.06-0.5-1.88c0-1.31,0.45-2.81,1.34-4.5
		c0.9-1.7,1.89-2.95,2.99-3.77s2.1-1.22,3.01-1.22c0.2,0,0.5,0.03,0.91,0.1c0.43-1.79,0.84-3.09,1.24-3.91
		c0.39-0.82,0.9-1.53,1.53-2.12c0.62-0.6,1.34-1.06,2.14-1.38c0.8-0.33,1.55-0.49,2.25-0.49c0.37,0,0.66,0.1,0.88,0.29
		c0.22,0.19,0.33,0.44,0.33,0.73c0,0.29-0.1,0.52-0.3,0.7c-0.2,0.18-0.48,0.27-0.83,0.27c-0.23,0-0.66-0.05-1.28-0.14
		s-1.05-0.14-1.28-0.14c-0.32,0-0.61,0.1-0.85,0.3s-0.48,0.62-0.7,1.27c-0.15,0.41-0.48,1.73-1,3.96l-1.95,8.32
		c-0.23,0.98-0.34,1.63-0.34,1.96c0,0.35,0.13,0.52,0.4,0.52c0.17,0,0.36-0.06,0.58-0.18C258.74,475.78,259.34,475.35,260.24,474.65
		z M257.32,467.53c-0.74-0.17-1.25-0.25-1.56-0.25c-0.62,0-1.22,0.24-1.8,0.72c-0.59,0.48-1.16,1.42-1.7,2.81
		c-0.55,1.39-0.82,2.6-0.82,3.63c0,0.47,0.13,0.85,0.38,1.15c0.25,0.3,0.54,0.45,0.86,0.45c0.39,0,0.83-0.17,1.32-0.51
		c0.71-0.51,1.27-1.12,1.68-1.85c0.25-0.46,0.58-1.59,1.01-3.38L257.32,467.53z"/>
	<path class="st11" d="M274,474.04l0.46,0.61c-2.25,2.14-4.18,3.21-5.79,3.21c-0.65,0-1.15-0.22-1.49-0.66
		c-0.34-0.44-0.52-1.15-0.52-2.12c0-1.97,0.6-3.92,1.79-5.87c1.34-2.21,2.94-3.32,4.81-3.32c0.65,0,1.15,0.16,1.49,0.49
		c0.34,0.33,0.52,0.77,0.52,1.34c0,0.6-0.21,1.18-0.62,1.76c-0.41,0.58-1.15,1.18-2.22,1.8c-0.53,0.3-1.67,0.85-3.42,1.64
		c-0.08,0.5-0.12,0.97-0.12,1.42c0,0.65,0.1,1.11,0.31,1.36c0.21,0.26,0.51,0.39,0.9,0.39c0.38,0,0.79-0.11,1.24-0.32
		C271.95,475.5,272.83,474.92,274,474.04z M269.18,472.05c1.48-0.66,2.59-1.37,3.33-2.14c0.5-0.53,0.76-1.06,0.76-1.58
		c0-0.39-0.1-0.71-0.31-0.94c-0.21-0.23-0.48-0.35-0.81-0.35c-0.34,0-0.67,0.13-0.99,0.39c-0.43,0.34-0.79,0.85-1.09,1.54
		C269.65,469.97,269.35,471,269.18,472.05z"/>
	<path class="st11" d="M281.68,465.92c0.82,0,1.45,0.16,1.89,0.48c0.45,0.32,0.67,0.68,0.67,1.09c0,0.25-0.09,0.46-0.28,0.65
		c-0.19,0.18-0.42,0.28-0.68,0.28c-0.17,0-0.33-0.04-0.46-0.12s-0.31-0.27-0.55-0.59c-0.45-0.6-0.9-0.9-1.34-0.9
		c-0.38,0-0.71,0.14-1,0.43c-0.29,0.29-0.43,0.65-0.43,1.08c0,0.38,0.09,0.74,0.28,1.09c0.18,0.35,0.65,0.92,1.39,1.71
		c1.02,1.08,1.53,2.11,1.53,3.08s-0.41,1.82-1.24,2.55c-0.83,0.73-1.89,1.09-3.2,1.09c-1.09,0-1.91-0.22-2.44-0.67
		c-0.53-0.45-0.8-0.99-0.8-1.65c0-0.32,0.1-0.59,0.3-0.8c0.2-0.21,0.45-0.32,0.74-0.32c0.26,0,0.48,0.08,0.66,0.25
		s0.28,0.37,0.28,0.6c0,0.09-0.01,0.21-0.02,0.36c-0.01,0.12-0.01,0.22-0.01,0.3c0,0.3,0.13,0.56,0.38,0.77
		c0.25,0.21,0.59,0.32,1.02,0.32c0.49,0,0.93-0.08,1.3-0.25c0.38-0.17,0.67-0.43,0.88-0.77c0.21-0.34,0.32-0.69,0.32-1.03
		c0-0.33-0.1-0.66-0.3-0.99c-0.2-0.33-0.64-0.88-1.33-1.64c-0.96-1.06-1.43-2.09-1.43-3.07c0-0.9,0.36-1.69,1.09-2.36
		C279.64,466.25,280.56,465.92,281.68,465.92z"/>
	<path class="st11" d="M289.81,469.15l-0.47-0.48c1.18-1.13,2.11-1.87,2.81-2.24c0.7-0.37,1.3-0.55,1.79-0.55
		c0.19,0,0.34,0.04,0.45,0.12c0.11,0.08,0.17,0.18,0.17,0.29c0,0.08-0.02,0.23-0.07,0.44l-0.62,2.77c0.94-1.04,2.11-2.01,3.52-2.91
		c0.75-0.47,1.37-0.7,1.86-0.7c0.36,0,0.64,0.11,0.84,0.34c0.2,0.23,0.3,0.56,0.3,0.99c0,0.29-0.04,0.61-0.12,0.96
		c-0.15,0.6-0.53,1.9-1.15,3.9c-0.59,1.87-0.88,3.12-0.88,3.73c0,0.19,0.03,0.33,0.08,0.42c0.05,0.09,0.13,0.14,0.23,0.14
		c0.27,0,0.68-0.26,1.25-0.77c0.4-0.37,0.81-0.71,1.21-1.02l0.34,0.5c-0.84,0.93-1.72,1.68-2.63,2.25
		c-0.58,0.37-1.06,0.55-1.43,0.55c-0.35,0-0.62-0.13-0.81-0.38c-0.19-0.25-0.29-0.66-0.29-1.23c0-0.82,0.51-2.85,1.53-6.1
		c0.31-1.16,0.47-1.83,0.47-2.03c0-0.28-0.17-0.43-0.51-0.43c-0.37,0-0.84,0.19-1.42,0.58c-0.86,0.57-1.58,1.24-2.16,2.01
		c-0.37,0.5-0.67,1.29-0.92,2.37l-1.12,4.82h-2.05c0.39-1.38,0.72-2.7,1.01-3.96l1.23-5.24c0.05-0.21,0.07-0.36,0.07-0.46
		c0-0.25-0.09-0.37-0.28-0.37c-0.15,0-0.36,0.1-0.63,0.29C290.83,468.14,290.3,468.61,289.81,469.15z"/>
	<path class="st11" d="M310.95,466.27h1.96l-1.29,4.82c-0.76,2.8-1.14,4.39-1.14,4.77c0,0.17,0.04,0.31,0.12,0.4
		c0.08,0.09,0.17,0.14,0.28,0.14c0.16,0,0.34-0.07,0.55-0.21c0.3-0.21,0.88-0.74,1.72-1.6l0.46,0.51c-1.85,1.92-3.21,2.88-4.08,2.88
		c-0.29,0-0.54-0.11-0.75-0.34c-0.21-0.22-0.31-0.54-0.31-0.96c0-0.48,0.1-1.12,0.3-1.92c-0.82,0.94-1.83,1.76-3.03,2.47
		c-0.8,0.47-1.49,0.7-2.08,0.7c-0.32,0-0.57-0.11-0.76-0.32c-0.18-0.21-0.27-0.55-0.27-1.01c0-0.36,0.04-0.75,0.12-1.16
		c0.12-0.58,0.42-1.74,0.91-3.49c0.62-2.22,0.92-3.54,0.92-3.99c0-0.26-0.09-0.39-0.28-0.39c-0.17,0-0.39,0.08-0.68,0.25
		c-0.28,0.17-0.77,0.58-1.46,1.23l-0.61-0.48c1.23-1.1,2.17-1.83,2.82-2.17s1.17-0.52,1.56-0.52c0.22,0,0.4,0.08,0.54,0.24
		s0.21,0.41,0.21,0.75c0,0.63-0.33,2.19-0.99,4.68c-0.59,2.24-0.88,3.51-0.88,3.82c0,0.19,0.06,0.36,0.19,0.5
		c0.12,0.14,0.26,0.21,0.41,0.21c0.51,0,1.24-0.42,2.19-1.27s1.56-1.82,1.86-2.9L310.95,466.27z"/>
	<path class="st11" d="M321.1,474.04l0.45,0.61c-2.25,2.14-4.18,3.21-5.79,3.21c-0.65,0-1.15-0.22-1.5-0.66
		c-0.34-0.44-0.52-1.15-0.52-2.12c0-1.97,0.6-3.92,1.79-5.87c1.34-2.21,2.94-3.32,4.81-3.32c0.65,0,1.15,0.16,1.5,0.49
		c0.34,0.33,0.52,0.77,0.52,1.34c0,0.6-0.21,1.18-0.62,1.76c-0.41,0.58-1.15,1.18-2.22,1.8c-0.53,0.3-1.67,0.85-3.42,1.64
		c-0.08,0.5-0.12,0.97-0.12,1.42c0,0.65,0.1,1.11,0.31,1.36c0.21,0.26,0.51,0.39,0.9,0.39c0.38,0,0.79-0.11,1.24-0.32
		C319.05,475.5,319.94,474.92,321.1,474.04z M316.28,472.05c1.48-0.66,2.59-1.37,3.33-2.14c0.5-0.53,0.76-1.06,0.76-1.58
		c0-0.39-0.1-0.71-0.31-0.94c-0.21-0.23-0.47-0.35-0.81-0.35c-0.34,0-0.67,0.13-0.99,0.39c-0.43,0.34-0.79,0.85-1.09,1.54
		C316.75,469.97,316.45,471,316.28,472.05z"/>
	<path class="st11" d="M328.79,465.92c0.82,0,1.45,0.16,1.89,0.48c0.45,0.32,0.67,0.68,0.67,1.09c0,0.25-0.09,0.46-0.28,0.65
		c-0.19,0.18-0.42,0.28-0.68,0.28c-0.17,0-0.33-0.04-0.46-0.12c-0.13-0.08-0.31-0.27-0.55-0.59c-0.45-0.6-0.9-0.9-1.34-0.9
		c-0.38,0-0.71,0.14-1,0.43c-0.29,0.29-0.43,0.65-0.43,1.08c0,0.38,0.09,0.74,0.28,1.09c0.18,0.35,0.65,0.92,1.39,1.71
		c1.02,1.08,1.53,2.11,1.53,3.08s-0.41,1.82-1.24,2.55c-0.83,0.73-1.89,1.09-3.2,1.09c-1.09,0-1.91-0.22-2.44-0.67
		c-0.53-0.45-0.8-0.99-0.8-1.65c0-0.32,0.1-0.59,0.3-0.8c0.2-0.21,0.45-0.32,0.74-0.32c0.26,0,0.48,0.08,0.66,0.25
		c0.18,0.17,0.28,0.37,0.28,0.6c0,0.09-0.01,0.21-0.02,0.36c-0.01,0.12-0.01,0.22-0.01,0.3c0,0.3,0.13,0.56,0.38,0.77
		c0.25,0.21,0.59,0.32,1.02,0.32c0.5,0,0.93-0.08,1.3-0.25c0.38-0.17,0.67-0.43,0.88-0.77c0.21-0.34,0.32-0.69,0.32-1.03
		c0-0.33-0.1-0.66-0.3-0.99c-0.2-0.33-0.64-0.88-1.33-1.64c-0.96-1.06-1.43-2.09-1.43-3.07c0-0.9,0.36-1.69,1.09-2.36
		C326.74,466.25,327.67,465.92,328.79,465.92z"/>
	<path class="st11" d="M334.89,463.79l2.19-0.84l-0.99,3.86h2.85l-0.22,0.98h-2.85l-1.2,4.62c-0.38,1.39-0.57,2.35-0.57,2.89
		c0,0.25,0.05,0.43,0.16,0.54s0.25,0.17,0.43,0.17c0.28,0,0.72-0.17,1.31-0.51c0.77-0.45,1.51-0.96,2.2-1.53l0.52,0.63
		c-2.01,1.52-3.36,2.44-4.04,2.78c-0.68,0.34-1.23,0.51-1.64,0.51c-0.34,0-0.61-0.12-0.81-0.37s-0.3-0.65-0.3-1.21
		c0-0.66,0.17-1.67,0.52-3.03l1.4-5.48h-2.23l0.25-0.98h2.23L334.89,463.79z"/>
	<path class="st11" d="M341.87,477.5h-2.05l0.96-3.71c0.47-1.82,0.88-3.55,1.23-5.18c0.08-0.4,0.12-0.66,0.12-0.76
		c0-0.22-0.1-0.33-0.3-0.33c-0.14,0-0.35,0.09-0.63,0.28c-0.29,0.19-0.8,0.65-1.54,1.4l-0.43-0.48c0.88-0.95,1.76-1.66,2.64-2.13
		c0.88-0.47,1.55-0.71,2.02-0.71c0.17,0,0.3,0.04,0.39,0.12s0.14,0.18,0.14,0.3c0,0.12-0.06,0.44-0.18,0.96l-0.6,2.48
		c0.93-1.47,1.98-2.72,3.15-3.76c0.56-0.5,1.03-0.75,1.41-0.75c0.28,0,0.51,0.09,0.69,0.27c0.18,0.18,0.28,0.39,0.28,0.63
		c0,0.25-0.09,0.46-0.27,0.63c-0.18,0.17-0.63,0.38-1.34,0.62c-0.68,0.23-1.23,0.51-1.66,0.83c-0.43,0.32-0.89,0.81-1.4,1.47
		c-0.51,0.66-0.87,1.24-1.07,1.73c-0.2,0.49-0.51,1.63-0.93,3.42L341.87,477.5z"/>
	<path class="st11" d="M356.44,465.68l0.91-0.19l-1.03,3.49c-0.41,1.39-0.8,2.99-1.17,4.79c-0.2,0.98-0.3,1.62-0.3,1.9
		c0,0.28,0.12,0.43,0.34,0.43c0.15,0,0.38-0.1,0.7-0.29c0.57-0.34,1.12-0.76,1.64-1.27l0.44,0.54c-1.05,0.96-1.72,1.53-2.01,1.74
		c-0.59,0.4-1.15,0.7-1.68,0.9c-0.35,0.13-0.69,0.19-1.02,0.19c-0.24,0-0.42-0.05-0.54-0.17c-0.12-0.11-0.18-0.27-0.18-0.48
		c0-0.14,0.04-0.33,0.11-0.56l0.55-1.87c-0.79,0.95-1.73,1.76-2.82,2.44c-0.67,0.42-1.29,0.63-1.85,0.63
		c-0.53,0-0.94-0.19-1.23-0.56c-0.39-0.51-0.58-1.17-0.58-1.98c0-0.97,0.26-2.06,0.78-3.25c0.52-1.19,1.21-2.28,2.09-3.25
		c0.87-0.97,1.79-1.69,2.76-2.15c0.74-0.35,1.7-0.52,2.87-0.52c0.29,0,0.59,0.02,0.9,0.05L356.44,465.68z M354.73,467.79
		c-0.5-0.1-0.91-0.15-1.25-0.15c-0.83,0-1.55,0.23-2.16,0.68c-0.62,0.45-1.19,1.27-1.71,2.45c-0.53,1.18-0.79,2.36-0.79,3.53
		c0,0.62,0.11,1.07,0.32,1.35c0.21,0.28,0.49,0.41,0.83,0.41c0.63,0,1.31-0.34,2.04-1.03c0.73-0.68,1.26-1.67,1.6-2.96
		L354.73,467.79z"/>
	<path class="st11" d="M363.83,469.33l-0.54-0.55c0.84-1,1.67-1.74,2.49-2.22c0.83-0.48,1.54-0.72,2.15-0.72
		c0.23,0,0.41,0.06,0.54,0.17c0.13,0.11,0.2,0.28,0.2,0.5c0,0.27-0.03,0.54-0.09,0.82s-0.25,0.94-0.56,1.99
		c1.41-1.41,2.36-2.27,2.88-2.6c0.86-0.56,1.65-0.84,2.37-0.84c0.47,0,0.86,0.22,1.18,0.66c0.32,0.44,0.48,1.11,0.48,2
		c0,2.22-0.69,4.33-2.08,6.34c-1.39,2-2.92,3-4.6,3c-0.66,0-1.32-0.18-1.98-0.54l-1.18,4.55c-0.07,0.28-0.11,0.5-0.11,0.67
		c0,0.34,0.13,0.58,0.39,0.73c0.39,0.23,1.23,0.42,2.49,0.56l-0.18,0.69c-1.48-0.12-2.64-0.18-3.49-0.18c-0.87,0-2,0.06-3.39,0.18
		l0.18-0.69c0.7-0.07,1.21-0.27,1.52-0.58c0.32-0.31,0.57-0.87,0.76-1.67l2.49-10.46c0.47-1.95,0.7-3.03,0.7-3.25
		c0-0.24-0.11-0.36-0.34-0.36C365.74,467.55,364.97,468.15,363.83,469.33z M366.63,475.83c0.72,0.73,1.47,1.09,2.23,1.09
		c1.1,0,2.07-0.86,2.9-2.58s1.25-3.39,1.25-5.03c0-0.52-0.12-0.92-0.35-1.19c-0.23-0.27-0.55-0.41-0.94-0.41
		c-0.44,0-0.93,0.22-1.48,0.65c-0.85,0.67-1.5,1.34-1.95,2c-0.32,0.48-0.62,1.3-0.91,2.48L366.63,475.83z"/>
	<path class="st11" d="M377.86,477.5h-2.05l0.96-3.71c0.47-1.82,0.88-3.55,1.23-5.18c0.08-0.4,0.12-0.66,0.12-0.76
		c0-0.22-0.1-0.33-0.3-0.33c-0.14,0-0.35,0.09-0.63,0.28c-0.29,0.19-0.8,0.65-1.54,1.4l-0.43-0.48c0.88-0.95,1.76-1.66,2.64-2.13
		c0.88-0.47,1.55-0.71,2.02-0.71c0.17,0,0.3,0.04,0.39,0.12s0.14,0.18,0.14,0.3c0,0.12-0.06,0.44-0.18,0.96l-0.6,2.48
		c0.93-1.47,1.98-2.72,3.15-3.76c0.56-0.5,1.03-0.75,1.41-0.75c0.28,0,0.51,0.09,0.69,0.27c0.18,0.18,0.28,0.39,0.28,0.63
		c0,0.25-0.09,0.46-0.27,0.63c-0.18,0.17-0.63,0.38-1.34,0.62c-0.68,0.23-1.23,0.51-1.66,0.83c-0.43,0.32-0.89,0.81-1.4,1.47
		c-0.51,0.66-0.87,1.24-1.07,1.73c-0.2,0.49-0.51,1.63-0.93,3.42L377.86,477.5z"/>
	<path class="st11" d="M383.48,469.11l-0.61-0.47c0.92-1.01,1.75-1.73,2.51-2.16c0.76-0.43,1.4-0.64,1.93-0.64
		c0.29,0,0.52,0.06,0.67,0.19c0.16,0.13,0.23,0.3,0.23,0.52c0,0.27-0.3,1.4-0.89,3.39c-0.97,3.26-1.46,5.23-1.46,5.9
		c0,0.13,0.03,0.24,0.1,0.32c0.06,0.09,0.13,0.13,0.21,0.13c0.29,0,1.05-0.57,2.26-1.71l0.54,0.52c-1.26,1.19-2.18,1.94-2.76,2.27
		c-0.58,0.33-1.05,0.5-1.42,0.5c-0.32,0-0.58-0.1-0.76-0.3c-0.19-0.2-0.28-0.48-0.28-0.84c0-1.15,0.69-3.95,2.07-8.42
		c0.06-0.21,0.1-0.4,0.1-0.57c0-0.18-0.08-0.28-0.25-0.28c-0.18,0-0.39,0.07-0.63,0.22C384.81,467.85,384.28,468.32,383.48,469.11z
		 M388.89,459.99c0.28,0,0.52,0.09,0.7,0.28c0.18,0.19,0.28,0.43,0.28,0.72c0,0.4-0.14,0.76-0.42,1.07s-0.59,0.46-0.94,0.46
		c-0.28,0-0.51-0.1-0.69-0.29c-0.18-0.19-0.28-0.45-0.28-0.76c0-0.41,0.13-0.76,0.4-1.05C388.21,460.13,388.52,459.99,388.89,459.99
		z"/>
	<path class="st11" d="M395.9,465.92c0.9,0,1.65,0.36,2.25,1.07c0.6,0.72,0.9,1.71,0.9,2.99c0,2.04-0.72,3.87-2.15,5.49
		c-1.43,1.62-2.95,2.43-4.55,2.43c-0.98,0-1.78-0.32-2.38-0.96c-0.6-0.64-0.9-1.52-0.9-2.63c0-1.93,0.55-3.71,1.65-5.35
		C392.11,466.93,393.83,465.92,395.9,465.92z M394.73,466.95c-0.78,0-1.54,0.56-2.27,1.67c-0.73,1.12-1.1,2.66-1.1,4.62
		c0,1.19,0.22,2.13,0.67,2.82c0.33,0.5,0.77,0.76,1.32,0.76c0.77,0,1.47-0.48,2.11-1.43c0.81-1.24,1.21-2.78,1.21-4.62
		c0-1.38-0.19-2.36-0.56-2.95S395.29,466.95,394.73,466.95z"/>
	<path class="st11" d="M402.16,477.5h-2.05l0.96-3.71c0.47-1.82,0.88-3.55,1.23-5.18c0.08-0.4,0.12-0.66,0.12-0.76
		c0-0.22-0.1-0.33-0.3-0.33c-0.14,0-0.35,0.09-0.63,0.28c-0.29,0.19-0.8,0.65-1.54,1.4l-0.43-0.48c0.88-0.95,1.76-1.66,2.64-2.13
		c0.88-0.47,1.55-0.71,2.02-0.71c0.17,0,0.3,0.04,0.39,0.12s0.14,0.18,0.14,0.3c0,0.12-0.06,0.44-0.18,0.96l-0.6,2.48
		c0.93-1.47,1.98-2.72,3.15-3.76c0.56-0.5,1.03-0.75,1.41-0.75c0.28,0,0.51,0.09,0.69,0.27c0.18,0.18,0.28,0.39,0.28,0.63
		c0,0.25-0.09,0.46-0.27,0.63c-0.18,0.17-0.63,0.38-1.34,0.62c-0.68,0.23-1.23,0.51-1.66,0.83c-0.43,0.32-0.89,0.81-1.4,1.47
		c-0.51,0.66-0.87,1.24-1.07,1.73c-0.2,0.49-0.51,1.63-0.93,3.42L402.16,477.5z"/>
	<path class="st11" d="M407.78,469.11l-0.61-0.47c0.92-1.01,1.75-1.73,2.51-2.16c0.76-0.43,1.4-0.64,1.93-0.64
		c0.29,0,0.52,0.06,0.67,0.19c0.16,0.13,0.23,0.3,0.23,0.52c0,0.27-0.3,1.4-0.89,3.39c-0.97,3.26-1.46,5.23-1.46,5.9
		c0,0.13,0.03,0.24,0.1,0.32c0.06,0.09,0.13,0.13,0.21,0.13c0.29,0,1.05-0.57,2.26-1.71l0.54,0.52c-1.26,1.19-2.18,1.94-2.76,2.27
		c-0.58,0.33-1.05,0.5-1.42,0.5c-0.32,0-0.58-0.1-0.76-0.3c-0.19-0.2-0.28-0.48-0.28-0.84c0-1.15,0.69-3.95,2.07-8.42
		c0.06-0.21,0.1-0.4,0.1-0.57c0-0.18-0.08-0.28-0.25-0.28c-0.18,0-0.39,0.07-0.63,0.22C409.11,467.85,408.59,468.32,407.78,469.11z
		 M413.2,459.99c0.28,0,0.52,0.09,0.7,0.28c0.18,0.19,0.28,0.43,0.28,0.72c0,0.4-0.14,0.76-0.42,1.07s-0.59,0.46-0.94,0.46
		c-0.28,0-0.51-0.1-0.69-0.29c-0.18-0.19-0.28-0.45-0.28-0.76c0-0.41,0.13-0.76,0.4-1.05C412.51,460.13,412.83,459.99,413.2,459.99z
		"/>
	<path class="st11" d="M423.98,474.65l0.39,0.52c-1.23,1.04-2.14,1.73-2.74,2.07c-0.83,0.47-1.48,0.7-1.96,0.7
		c-0.22,0-0.4-0.06-0.54-0.19s-0.21-0.26-0.21-0.42s0.05-0.41,0.15-0.77l0.48-1.68c-1.1,1.19-2.02,1.99-2.76,2.41
		c-0.74,0.42-1.4,0.63-1.98,0.63c-0.49,0-0.9-0.21-1.23-0.64c-0.33-0.43-0.5-1.06-0.5-1.88c0-1.31,0.45-2.81,1.34-4.5
		s1.89-2.95,2.99-3.77s2.1-1.22,3.01-1.22c0.2,0,0.51,0.03,0.91,0.1c0.43-1.79,0.84-3.09,1.24-3.91c0.4-0.82,0.91-1.53,1.53-2.12
		c0.62-0.6,1.34-1.06,2.14-1.38c0.8-0.33,1.55-0.49,2.25-0.49c0.37,0,0.66,0.1,0.88,0.29c0.22,0.19,0.33,0.44,0.33,0.73
		c0,0.29-0.1,0.52-0.3,0.7c-0.2,0.18-0.48,0.27-0.83,0.27c-0.23,0-0.66-0.05-1.28-0.14c-0.63-0.09-1.05-0.14-1.29-0.14
		c-0.32,0-0.61,0.1-0.85,0.3c-0.24,0.2-0.48,0.62-0.7,1.27c-0.15,0.41-0.48,1.73-1,3.96l-1.95,8.32c-0.23,0.98-0.34,1.63-0.34,1.96
		c0,0.35,0.13,0.52,0.4,0.52c0.17,0,0.36-0.06,0.58-0.18C422.48,475.78,423.08,475.35,423.98,474.65z M421.06,467.53
		c-0.73-0.17-1.25-0.25-1.56-0.25c-0.62,0-1.22,0.24-1.8,0.72c-0.59,0.48-1.16,1.42-1.7,2.81c-0.55,1.39-0.82,2.6-0.82,3.63
		c0,0.47,0.13,0.85,0.38,1.15c0.25,0.3,0.54,0.45,0.86,0.45c0.39,0,0.83-0.17,1.32-0.51c0.71-0.51,1.27-1.12,1.68-1.85
		c0.25-0.46,0.58-1.59,1.01-3.38L421.06,467.53z"/>
	<path class="st11" d="M434.45,465.68l0.91-0.19l-1.03,3.49c-0.41,1.39-0.8,2.99-1.17,4.79c-0.2,0.98-0.3,1.62-0.3,1.9
		c0,0.28,0.12,0.43,0.34,0.43c0.15,0,0.38-0.1,0.7-0.29c0.57-0.34,1.12-0.76,1.64-1.27l0.44,0.54c-1.05,0.96-1.72,1.53-2.01,1.74
		c-0.59,0.4-1.15,0.7-1.68,0.9c-0.35,0.13-0.69,0.19-1.02,0.19c-0.24,0-0.42-0.05-0.54-0.17c-0.12-0.11-0.18-0.27-0.18-0.48
		c0-0.14,0.04-0.33,0.11-0.56l0.55-1.87c-0.79,0.95-1.73,1.76-2.82,2.44c-0.67,0.42-1.29,0.63-1.85,0.63
		c-0.53,0-0.94-0.19-1.23-0.56c-0.39-0.51-0.58-1.17-0.58-1.98c0-0.97,0.26-2.06,0.78-3.25c0.52-1.19,1.21-2.28,2.09-3.25
		c0.87-0.97,1.79-1.69,2.76-2.15c0.74-0.35,1.7-0.52,2.87-0.52c0.29,0,0.59,0.02,0.9,0.05L434.45,465.68z M432.74,467.79
		c-0.5-0.1-0.91-0.15-1.25-0.15c-0.83,0-1.55,0.23-2.16,0.68c-0.62,0.45-1.19,1.27-1.71,2.45c-0.53,1.18-0.79,2.36-0.79,3.53
		c0,0.62,0.11,1.07,0.32,1.35c0.21,0.28,0.49,0.41,0.83,0.41c0.63,0,1.31-0.34,2.04-1.03c0.73-0.68,1.26-1.67,1.6-2.96
		L432.74,467.79z"/>
	<path class="st11" d="M446.78,474.65l0.39,0.52c-1.23,1.04-2.14,1.73-2.74,2.07c-0.83,0.47-1.48,0.7-1.96,0.7
		c-0.22,0-0.4-0.06-0.54-0.19s-0.21-0.26-0.21-0.42s0.05-0.41,0.15-0.77l0.48-1.68c-1.1,1.19-2.02,1.99-2.76,2.41
		c-0.74,0.42-1.4,0.63-1.98,0.63c-0.49,0-0.9-0.21-1.23-0.64c-0.33-0.43-0.5-1.06-0.5-1.88c0-1.31,0.45-2.81,1.34-4.5
		s1.89-2.95,2.99-3.77s2.1-1.22,3.01-1.22c0.2,0,0.51,0.03,0.91,0.1c0.43-1.79,0.84-3.09,1.24-3.91c0.4-0.82,0.91-1.53,1.53-2.12
		c0.62-0.6,1.34-1.06,2.14-1.38c0.8-0.33,1.55-0.49,2.25-0.49c0.37,0,0.66,0.1,0.88,0.29c0.22,0.19,0.33,0.44,0.33,0.73
		c0,0.29-0.1,0.52-0.3,0.7c-0.2,0.18-0.48,0.27-0.83,0.27c-0.23,0-0.66-0.05-1.28-0.14c-0.63-0.09-1.05-0.14-1.29-0.14
		c-0.32,0-0.61,0.1-0.85,0.3c-0.24,0.2-0.48,0.62-0.7,1.27c-0.15,0.41-0.48,1.73-1,3.96l-1.95,8.32c-0.23,0.98-0.34,1.63-0.34,1.96
		c0,0.35,0.13,0.52,0.4,0.52c0.17,0,0.36-0.06,0.58-0.18C445.27,475.78,445.88,475.35,446.78,474.65z M443.86,467.53
		c-0.73-0.17-1.25-0.25-1.56-0.25c-0.62,0-1.22,0.24-1.8,0.72c-0.59,0.48-1.16,1.42-1.7,2.81c-0.55,1.39-0.82,2.6-0.82,3.63
		c0,0.47,0.13,0.85,0.38,1.15c0.25,0.3,0.54,0.45,0.86,0.45c0.39,0,0.83-0.17,1.32-0.51c0.71-0.51,1.27-1.12,1.68-1.85
		c0.25-0.46,0.58-1.59,1.01-3.38L443.86,467.53z"/>
</g>
</svg>
