<?xml version="1.0" encoding="utf-8"?>
<!-- Generator: Adobe Illustrator 27.1.0, SVG Export Plug-In . SVG Version: 6.00 Build 0)  -->
<svg version="1.1" id="Capa_1" xmlns="http://www.w3.org/2000/svg" xmlns:xlink="http://www.w3.org/1999/xlink" x="0px" y="0px"
	 viewBox="0 0 735.43 241.71" style="enable-background:new 0 0 735.43 241.71;" xml:space="preserve">
<style type="text/css">
	.st0{fill:url(#SVGID_1_);}
	.st1{fill:#0771A9;}
	.st2{fill:url(#SVGID_00000146476322836337060790000006556234854766204545_);}
	.st3{fill:#FFFFFF;}
	.st4{fill:url(#SVGID_00000161610900576122437880000002663590920615893939_);}
	.st5{fill:url(#SVGID_00000056385354640608719960000016007847284313545882_);}
	.st6{fill:url(#SVGID_00000057869489655666419340000001892225908038610567_);}
	.st7{fill:#13597A;}
	.st8{opacity:0.44;fill:#DFF1F7;}
	.st9{fill:#15688D;}
	.st10{fill:#1C8ABA;}
</style>
<linearGradient id="SVGID_1_" gradientUnits="userSpaceOnUse" x1="136.877" y1="273.695" x2="109.4266" y2="40.4154">
	<stop  offset="0" style="stop-color:#FFFFFF"/>
	<stop  offset="0.1523" style="stop-color:#DEC7C5"/>
	<stop  offset="0.3152" style="stop-color:#BE918F"/>
	<stop  offset="0.4743" style="stop-color:#A46561"/>
	<stop  offset="0.6259" style="stop-color:#8F433E"/>
	<stop  offset="0.7678" style="stop-color:#812A25"/>
	<stop  offset="0.8964" style="stop-color:#781B15"/>
	<stop  offset="1" style="stop-color:#751610"/>
</linearGradient>
<path class="st0" d="M131.36,172.66c0,0-16.98,17.32-16.25,29.28c0.73,11.96-0.02,1.91-0.02,1.91s-35.68-55.26-30.72-97.74
	c0,0,6.54-16.34-4.05-19.72c0,0-12.17,12.44-27.49-2.68c0,0-8.34-5.88-23.44-3.86c0,0-3.34-56.34,52.41-54.08
	c0,0,21.95,4.28,32.77,30.2c0,0,3.38,12.62,21.86,14.87c0,0,29.3-11.94,54.08,10.37c0,0,22.76,29.07,5.41,51.83
	c0,0-13.3,10.14-26.82,14.42c-13.52,4.28-1.13-0.23-1.13-0.23S141.17,155.94,131.36,172.66z"/>
<path class="st1" d="M122.61,217.07c0,0-73.54-28.91-91.4-113.5c0,0-24.02,4.04,13.29,38.42c0,0-21.15-3.84-30.72-23.75
	c0,0-5.99-9.83,0.74-21.26c5.37-9.11,15.71-14.02,26.25-13.16c2.95,0.24,5.9,0.75,8.21,1.72c1.44,0.61,2.65,1.65,3.49,2.96
	c0.03,0.04,0.05,0.08,0.08,0.12c8.59,13.18,15.48,11.59,26.55,4.32c4.53-2.98,8.02-4.26,9.85-4.75c5.6-1.49,12.66,0.82,14.24,1.77
	c5.39,3.26,9.18,6.25,11.02,15.3c1.07,5.28-1.3,12.58-4.89,17.75c-5.04,7.28-7.26,8.79-17.18,17.82c0,0,8.31-7.49,11.48-15.59
	c2.62-6.7,2.15-14.86-0.31-17.02c-1.32-1.16-3.04-2.03-4.79-2.11c-0.02,0-0.03,0-0.05,0c-3.76-0.15-7.17,2.25-8.42,5.8
	C86.66,121.52,86.65,147.8,122.61,217.07z"/>
<linearGradient id="SVGID_00000097465473662401459720000003777477649632725122_" gradientUnits="userSpaceOnUse" x1="52.1475" y1="-37.7146" x2="82.4554" y2="69.6143">
	<stop  offset="0" style="stop-color:#FFFFFF"/>
	<stop  offset="0.0926" style="stop-color:#F8DFDF"/>
	<stop  offset="0.2699" style="stop-color:#EBA7A6"/>
	<stop  offset="0.4422" style="stop-color:#E17878"/>
	<stop  offset="0.6053" style="stop-color:#D95453"/>
	<stop  offset="0.757" style="stop-color:#D33A39"/>
	<stop  offset="0.893" style="stop-color:#CF2A2A"/>
	<stop  offset="1" style="stop-color:#CE2524"/>
</linearGradient>
<path style="fill:url(#SVGID_00000097465473662401459720000003777477649632725122_);" d="M28.24,82.1c0,0-4.99-33.25,22.14-51.65
	c10.36-7.03,26.11-10.16,37.8-5.67c8.35,3.21,15.3,5.67,31.6,35.14c1.73,3.13,6.39,6.88,9.92,7.46c2.29,0.38,4.36,1.1,9.71-0.59
	c0,0-14.53,7.26-24.73-5.03c-2.05-2.47-6.3-7.61-9.18-11.12c-5.17-6.33-11.69-11.8-19.34-15.62c-5.89-2.95-15.66-4-19.87-3.61
	c-9.21,0.85-15.35,5.35-15.66,5.56c-10.34,7.09-11.35,18.39-9.54,29.44c0.95,5.79,2.96,12.38,7.13,17.22
	C48.22,83.63,40.56,79.12,28.24,82.1z"/>
<path class="st3" d="M63.41,153.79c0,0,2.95,0.93,11.45,0.93c0,0,23.52,43.93,47.75,62.35c0,0-23.38-16.44-48.75-60.51
	C73.86,156.56,65.62,155.51,63.41,153.79z"/>
<linearGradient id="SVGID_00000143576577398905940650000017786418581521172399_" gradientUnits="userSpaceOnUse" x1="152.9193" y1="-4.8293" x2="146.9105" y2="108.8278">
	<stop  offset="0" style="stop-color:#FFFFFF"/>
	<stop  offset="0.282" style="stop-color:#ECAAAA"/>
	<stop  offset="0.5413" style="stop-color:#DC6262"/>
	<stop  offset="0.7264" style="stop-color:#D23635"/>
	<stop  offset="0.8196" style="stop-color:#CE2524"/>
</linearGradient>
<path style="fill:url(#SVGID_00000143576577398905940650000017786418581521172399_);" d="M90.44,86.84c0,0,20.73-9.01,36.84-14.88
	c0,0,33.77-15.04,58.39,3.11c7.64,5.63,13.03,13.74,15.97,22.76c3.87,11.86,5.98,30.71-12.69,43c-2.72,1.79-5.68,3.2-8.73,4.34
	c-5.17,1.93-15.48,5.81-20.29,7.82c0,0-16.64,5.02-28.58,19.66c0,0,7.92-12.51,25.19-21.48c1.61-0.84,3.28-1.55,4.99-2.18
	c7.9-2.9,38.84-16.35,33.94-47.23c-1.9-11.98-9.72-22.39-21.14-26.48c-12.47-4.47-32.86-0.99-58.85,25.94c0,0-0.53-3.76-5.28-8.93
	c-2.06-2.24-6.63-4.38-8.36-4.96C101.06,87.07,97.25,85.5,90.44,86.84z"/>
<linearGradient id="SVGID_00000097500910545203420090000009957634450819039141_" gradientUnits="userSpaceOnUse" x1="59.7318" y1="-18.6377" x2="83.9369" y2="67.0796">
	<stop  offset="0" style="stop-color:#FFFFFF"/>
	<stop  offset="0.1347" style="stop-color:#EAD6D5"/>
	<stop  offset="0.3701" style="stop-color:#C89590"/>
	<stop  offset="0.5828" style="stop-color:#AD615A"/>
	<stop  offset="0.7653" style="stop-color:#993B33"/>
	<stop  offset="0.9104" style="stop-color:#8D241B"/>
	<stop  offset="1" style="stop-color:#891C12"/>
</linearGradient>
<path style="fill:url(#SVGID_00000097500910545203420090000009957634450819039141_);" d="M50.06,38.95c0,0,17.29-16.79,44.46,2.37
	c0.6,0.42,1.16,0.9,1.72,1.37c4.12,3.48,9.05,8.56,13.72,14.96c0,0,4.78,7.55,10.63,9.88c0,0-5.53-0.96-11.9-8.93
	c0,0-8.89-9.6-15.68-12.75c0,0-34.8-18.6-50,5.63C43.01,51.49,43.51,45.22,50.06,38.95z"/>
<linearGradient id="SVGID_00000138545850917501468480000018083484614443115673_" gradientUnits="userSpaceOnUse" x1="138.002" y1="-9.0107" x2="156.2809" y2="106.2331">
	<stop  offset="0" style="stop-color:#FFFFFF"/>
	<stop  offset="0.2444" style="stop-color:#DEBDBB"/>
	<stop  offset="0.5113" style="stop-color:#BD7B77"/>
	<stop  offset="0.7354" style="stop-color:#A44B46"/>
	<stop  offset="0.9048" style="stop-color:#962D27"/>
	<stop  offset="1" style="stop-color:#90221C"/>
</linearGradient>
<path style="fill:url(#SVGID_00000138545850917501468480000018083484614443115673_);" d="M118.15,100.8c0,0,26.57-29.97,52.08-24.87
	c0,0,15.73,2.76,21.89,22.11c0,0,7.05,25.45-12.97,38.68c0,0,15.52-19.77,5.1-35.5C184.25,101.23,164.7,64.67,118.15,100.8z"/>
<path class="st7" d="M122.61,217.07c0,0-12.04-23.66-15.73-33.23c0,0-14.65-33.52-16.44-47.12c0,0-2.83-13.76-0.93-22.6
	c0.92-4.29,4.48-7.59,8.85-8c0.05,0,0.1-0.01,0.16-0.01c0,0-16.86-0.08-13.78,23.97c0.56,4.34,1.56,8.61,2.93,12.76
	C91.28,153.81,101.36,181.04,122.61,217.07z"/>
<path class="st8" d="M31.21,103.56c0,0,3.72,21.79,17.79,46.83c0,0-14.7-25.18-14.71-48.39C34.29,102,33.83,102.72,31.21,103.56z"/>
<circle class="st1" cx="68.5" cy="74.11" r="19.96"/>
<g>
	<path class="st9" d="M233.41,104.74c0.43,4.15,2.1,7.81,6.68,7.81c4.41,0,6.05-2.76,6.05-6.49c0-4.11-2.02-6.51-8.36-9.53
		c-8.57-4.07-11.93-7.67-11.93-15.11c0-8.03,5.16-13.52,14.22-13.52c11.26,0,14.04,7.62,14.19,14.14h-8.79
		c-0.29-2.86-1.03-7.07-5.56-7.07c-3.55,0-5.13,2.3-5.13,5.7c0,3.6,1.6,5.29,7.47,8.02c8.99,4.15,13.02,8.19,13.02,16.57
		c0,7.86-4.87,14.36-15.45,14.36c-11.51,0-15.02-7.37-15.33-14.88H233.41z"/>
	<path class="st9" d="M276.18,68.69v34.45c0,4.1,1.02,8.97,6.53,8.97c5.33,0,6.48-4.1,6.48-8.92V68.69h8.98v34.65
		c0,8.99-3.51,16.3-15.6,16.3c-11.9,0-15.37-6.87-15.37-16.3V68.69H276.18z"/>
	<path class="st9" d="M312.26,68.69h15.06c8.27,0,14.47,4.96,14.47,14.89c0,9.67-5.61,14.81-15.16,14.81h-5.39v20.37h-8.98V68.69z
		 M321.24,91.2h4.38c4.98,0,7.18-2.46,7.18-7.75c0-5.01-2.59-7.5-6.7-7.5h-4.86V91.2z"/>
	<path class="st9" d="M378.62,96.51h-16.07v14.54h18.04l-1.1,7.72H353.7V68.69h25.68v7.85h-16.83v12.19h16.07V96.51z"/>
	<path class="st9" d="M401.17,97.41v21.35h-8.92V68.69h15.33c9.1,0,14.26,4.75,14.26,13.68c0,7.24-3.88,10.37-6.49,11.4
		c3.88,1.81,5.71,5.11,5.71,12.5v2c0,5.69,0.27,7.81,0.67,10.49h-8.67c-0.73-2.29-0.86-6.26-0.86-10.57v-1.82
		c0-6.69-1.54-8.96-7.2-8.96H401.17z M401.17,90.15h4.21c5.41,0,7.53-2.33,7.53-7.39c0-4.31-2.06-6.81-6.65-6.81h-5.09V90.15z"/>
	<path class="st10" d="M441.65,104.74c0.44,4.15,2.1,7.81,6.68,7.81c4.41,0,6.05-2.76,6.05-6.49c0-4.11-2.03-6.51-8.36-9.53
		c-8.57-4.07-11.93-7.67-11.93-15.11c0-8.03,5.16-13.52,14.22-13.52c11.26,0,14.04,7.62,14.19,14.14h-8.79
		c-0.29-2.86-1.03-7.07-5.56-7.07c-3.55,0-5.13,2.3-5.13,5.7c0,3.6,1.6,5.29,7.47,8.02c8.98,4.15,13.02,8.19,13.02,16.57
		c0,7.86-4.87,14.36-15.45,14.36c-11.51,0-15.02-7.37-15.33-14.88H441.65z"/>
	<path class="st10" d="M500.87,96.51h-16.07v14.54h18.04l-1.1,7.72h-25.79V68.69h25.68v7.85h-16.83v12.19h16.07V96.51z"/>
	<path class="st10" d="M544.63,118.76h-6.83c-0.21-1.53-0.36-2.65-0.43-4.26c-2.24,3.96-5.71,5.12-9.94,5.12
		c-10.46,0-14.24-9.31-14.24-25.58c0-18.28,6.17-26.14,16.92-26.14c13.57,0,14.32,11.63,14.46,14.6h-8.86
		c-0.15-2.02-0.58-7.01-5.88-7.01c-5.78,0-7.39,7.7-7.39,18.54c0,11.67,1.37,18.08,7.09,18.08c4.75,0,6.19-3.64,6.19-11.02v-2.81
		h-6.74v-7.65h15.65C544.63,90.63,544.63,118.76,544.63,118.76z"/>
	<path class="st10" d="M567.51,68.69v34.45c0,4.1,1.02,8.97,6.53,8.97c5.33,0,6.48-4.1,6.48-8.92V68.69h8.98v34.65
		c0,8.99-3.51,16.3-15.6,16.3c-11.9,0-15.37-6.87-15.37-16.3V68.69H567.51z"/>
	<path class="st10" d="M612.51,97.41v21.35h-8.92V68.69h15.33c9.1,0,14.26,4.75,14.26,13.68c0,7.24-3.88,10.37-6.49,11.4
		c3.88,1.81,5.71,5.11,5.71,12.5v2c0,5.69,0.27,7.81,0.67,10.49h-8.67c-0.73-2.29-0.86-6.26-0.86-10.57v-1.82
		c0-6.69-1.54-8.96-7.2-8.96H612.51z M612.51,90.15h4.21c5.41,0,7.53-2.33,7.53-7.39c0-4.31-2.06-6.81-6.65-6.81h-5.09V90.15z"/>
	<path class="st10" d="M677.46,93.34c0,18.31-4.98,26.28-16.52,26.28c-10.78,0-16.04-7.85-16.04-26.38
		c0-18.07,6.12-25.35,16.45-25.35C672.26,67.89,677.46,75.96,677.46,93.34z M654.1,93.16c0,11.88,1.8,18.95,7.06,18.95
		c5.53,0,7.11-6.54,7.11-18.93c0-11.63-1.68-17.69-7.12-17.69C655.79,75.48,654.1,82,654.1,93.16z"/>
	<path class="st10" d="M696.87,104.74c0.44,4.15,2.1,7.81,6.68,7.81c4.41,0,6.05-2.76,6.05-6.49c0-4.11-2.03-6.51-8.36-9.53
		c-8.57-4.07-11.93-7.67-11.93-15.11c0-8.03,5.16-13.52,14.22-13.52c11.26,0,14.04,7.62,14.19,14.14h-8.79
		c-0.29-2.86-1.03-7.07-5.56-7.07c-3.55,0-5.13,2.3-5.13,5.7c0,3.6,1.6,5.29,7.47,8.02c8.98,4.15,13.02,8.19,13.02,16.57
		c0,7.86-4.87,14.36-15.45,14.36c-11.51,0-15.02-7.37-15.33-14.88H696.87z"/>
</g>
<g>
	<path d="M282.31,184.14l-0.31,1.25c-1.01,0.22-1.84,0.33-2.48,0.33c-0.62,0-1.63-0.07-3.05-0.2c-1.07-0.09-2.03-0.13-2.88-0.13
		c-1.46,0-2.97,0.13-4.53,0.4l0.31-1.21c1.48-0.15,2.56-0.45,3.23-0.92c0.48-0.34,0.9-0.91,1.24-1.72c0.34-0.81,1.12-3.65,2.34-8.51
		l2.81-11.65l0.15-0.55c-0.86-0.04-1.52-0.07-1.96-0.07c-2.71,0-4.86,0.29-6.45,0.88c-1.59,0.59-2.78,1.44-3.58,2.55
		c-0.8,1.12-1.2,2.32-1.2,3.61c0,0.46,0.08,0.87,0.24,1.25c0.12,0.26,0.44,0.69,0.97,1.28c0.5,0.54,0.75,1.04,0.75,1.5
		c0,0.4-0.15,0.73-0.44,1.01c-0.29,0.28-0.64,0.42-1.05,0.42c-0.62,0-1.11-0.29-1.49-0.88c-0.56-0.86-0.83-1.96-0.83-3.3
		c0-1.79,0.55-3.52,1.66-5.21c1.11-1.68,2.63-2.99,4.56-3.91s4.28-1.38,7.05-1.38c1.32,0,3.42,0.19,6.31,0.57
		c2.05,0.26,3.54,0.4,4.46,0.4s1.58-0.15,1.96-0.46s0.57-0.72,0.57-1.23c0-0.1-0.02-0.31-0.07-0.62c-0.04-0.28-0.07-0.46-0.07-0.55
		c0-0.4,0.13-0.72,0.4-0.99s0.58-0.4,0.94-0.4c0.44,0,0.8,0.16,1.09,0.48c0.29,0.32,0.43,0.75,0.43,1.3c0,1.11-0.59,2.07-1.78,2.88
		c-1.18,0.81-3.17,1.21-5.95,1.21c-1,0-2.06-0.04-3.18-0.13c-0.15,0.53-0.61,2.31-1.39,5.36l-1.92,7.6l-1.17,4.64l-1.21,5.29
		c0.98,0.12,1.79,0.18,2.44,0.18C280.22,184.51,281.24,184.39,282.31,184.14z"/>
	<path d="M300.53,167.48h3.13l-2.07,7.68c-1.22,4.46-1.82,7-1.82,7.61c0,0.28,0.07,0.49,0.2,0.64s0.28,0.22,0.44,0.22
		c0.25,0,0.54-0.11,0.88-0.33c0.48-0.34,1.4-1.19,2.75-2.55l0.72,0.81c-2.94,3.06-5.11,4.59-6.5,4.59c-0.47,0-0.87-0.18-1.2-0.54
		c-0.33-0.36-0.49-0.87-0.49-1.53c0-0.76,0.16-1.78,0.48-3.05c-1.3,1.49-2.91,2.81-4.83,3.93c-1.27,0.75-2.38,1.12-3.32,1.12
		c-0.51,0-0.92-0.17-1.21-0.51c-0.29-0.34-0.44-0.87-0.44-1.61c0-0.57,0.07-1.19,0.2-1.85c0.19-0.92,0.67-2.78,1.45-5.57
		c0.98-3.53,1.47-5.65,1.47-6.36c0-0.41-0.15-0.62-0.44-0.62c-0.26,0-0.62,0.14-1.08,0.41c-0.45,0.27-1.23,0.93-2.33,1.97
		l-0.97-0.77c1.96-1.76,3.46-2.91,4.49-3.46c1.03-0.55,1.86-0.82,2.49-0.82c0.35,0,0.64,0.13,0.86,0.38s0.33,0.66,0.33,1.2
		c0,1.01-0.53,3.5-1.58,7.46c-0.94,3.56-1.41,5.6-1.41,6.09c0,0.31,0.1,0.57,0.3,0.79c0.2,0.22,0.41,0.33,0.65,0.33
		c0.82,0,1.98-0.68,3.49-2.03c1.51-1.35,2.5-2.9,2.96-4.62L300.53,167.48z"/>
	<path d="M323.58,166.91c1.3,0,2.31,0.25,3.02,0.76c0.71,0.5,1.07,1.09,1.07,1.75c0,0.4-0.15,0.74-0.45,1.03
		c-0.3,0.29-0.66,0.44-1.09,0.44c-0.28,0-0.52-0.06-0.73-0.19c-0.21-0.12-0.5-0.44-0.88-0.93c-0.72-0.95-1.43-1.43-2.13-1.43
		c-0.6,0-1.13,0.23-1.59,0.69c-0.46,0.46-0.69,1.04-0.69,1.72c0,0.6,0.15,1.18,0.44,1.74c0.29,0.56,1.03,1.47,2.22,2.73
		c1.63,1.73,2.44,3.37,2.44,4.92s-0.66,2.91-1.98,4.07s-3.02,1.74-5.1,1.74c-1.74,0-3.04-0.36-3.89-1.07
		c-0.85-0.71-1.27-1.59-1.27-2.63c0-0.51,0.16-0.94,0.48-1.27s0.72-0.51,1.19-0.51c0.41,0,0.76,0.14,1.05,0.41
		c0.29,0.27,0.44,0.59,0.44,0.96c0,0.15-0.01,0.34-0.03,0.57c-0.01,0.19-0.01,0.35-0.01,0.48c0,0.48,0.2,0.89,0.61,1.23
		c0.39,0.34,0.93,0.5,1.62,0.5c0.79,0,1.48-0.14,2.08-0.41s1.07-0.68,1.4-1.23s0.5-1.09,0.5-1.63c0-0.53-0.16-1.05-0.47-1.58
		c-0.32-0.53-1.02-1.4-2.12-2.61c-1.52-1.7-2.29-3.33-2.29-4.89c0-1.43,0.58-2.69,1.74-3.76S321.8,166.91,323.58,166.91z"/>
	<path d="M342.14,166.54l1.45-0.31l-1.65,5.56c-0.66,2.21-1.28,4.76-1.87,7.65c-0.32,1.57-0.48,2.58-0.48,3.03s0.18,0.68,0.55,0.68
		c0.23,0,0.61-0.15,1.12-0.46c0.91-0.54,1.78-1.21,2.62-2.02l0.7,0.86c-1.67,1.52-2.74,2.45-3.21,2.77
		c-0.94,0.64-1.83,1.12-2.68,1.43c-0.56,0.2-1.1,0.31-1.63,0.31c-0.38,0-0.67-0.09-0.86-0.26s-0.29-0.43-0.29-0.77
		c0-0.22,0.06-0.52,0.18-0.9l0.88-2.99c-1.26,1.51-2.76,2.81-4.5,3.89c-1.07,0.67-2.05,1.01-2.94,1.01c-0.85,0-1.5-0.3-1.96-0.9
		c-0.62-0.81-0.92-1.86-0.92-3.16c0-1.55,0.41-3.28,1.24-5.19c0.83-1.9,1.94-3.63,3.33-5.19s2.86-2.7,4.39-3.43
		c1.19-0.56,2.71-0.84,4.57-0.84c0.47,0,0.94,0.03,1.43,0.09L342.14,166.54z M339.42,169.9c-0.79-0.16-1.46-0.24-2-0.24
		c-1.32,0-2.47,0.36-3.45,1.09c-0.98,0.72-1.89,2.03-2.74,3.91c-0.84,1.88-1.26,3.76-1.26,5.64c0,1,0.17,1.71,0.51,2.15
		s0.78,0.66,1.32,0.66c1.01,0,2.09-0.55,3.25-1.64c1.16-1.09,2.01-2.66,2.55-4.71L339.42,169.9z"/>
	<path d="M354.02,180.09l0.75,0.79c-1.14,1.29-2.49,2.46-4.05,3.53c-1.56,1.06-2.85,1.59-3.86,1.59c-0.45,0-0.83-0.17-1.12-0.52
		c-0.29-0.34-0.44-0.82-0.44-1.42c0-1.17,0.45-3.6,1.36-7.29l2.37-9.65c0.86-3.49,1.59-5.82,2.17-7.01
		c0.91-1.79,2.19-3.19,3.85-4.18s3.41-1.49,5.26-1.49c0.63,0,1.12,0.15,1.48,0.45c0.36,0.3,0.54,0.67,0.54,1.09
		c0,0.47-0.17,0.86-0.53,1.16s-0.86,0.45-1.53,0.45c-0.44,0-1.06-0.07-1.86-0.22c-0.7-0.12-1.35-0.18-1.95-0.18
		c-0.6,0-1.05,0.12-1.36,0.37c-0.42,0.35-0.81,1.09-1.15,2.21c-0.34,1.12-0.9,3.34-1.67,6.65l-2.19,9.21
		c-1.08,4.62-1.63,7.02-1.63,7.23c0,0.47,0.17,0.7,0.5,0.7c0.32,0,0.79-0.19,1.41-0.57C351.59,182.25,352.81,181.28,354.02,180.09z"
		/>
	<path d="M369.35,167.48h3.13l-2.07,7.68c-1.22,4.46-1.82,7-1.82,7.61c0,0.28,0.07,0.49,0.2,0.64s0.28,0.22,0.44,0.22
		c0.25,0,0.54-0.11,0.88-0.33c0.48-0.34,1.4-1.19,2.75-2.55l0.73,0.81c-2.94,3.06-5.11,4.59-6.5,4.59c-0.47,0-0.87-0.18-1.2-0.54
		c-0.33-0.36-0.5-0.87-0.5-1.53c0-0.76,0.16-1.78,0.48-3.05c-1.3,1.49-2.91,2.81-4.83,3.93c-1.27,0.75-2.38,1.12-3.32,1.12
		c-0.51,0-0.92-0.17-1.21-0.51c-0.29-0.34-0.44-0.87-0.44-1.61c0-0.57,0.07-1.19,0.2-1.85c0.19-0.92,0.67-2.78,1.45-5.57
		c0.98-3.53,1.47-5.65,1.47-6.36c0-0.41-0.15-0.62-0.44-0.62c-0.26,0-0.62,0.14-1.08,0.41c-0.45,0.27-1.23,0.93-2.33,1.97
		l-0.97-0.77c1.96-1.76,3.46-2.91,4.49-3.46c1.03-0.55,1.86-0.82,2.49-0.82c0.35,0,0.64,0.13,0.86,0.38s0.33,0.66,0.33,1.2
		c0,1.01-0.53,3.5-1.58,7.46c-0.94,3.56-1.41,5.6-1.41,6.09c0,0.31,0.1,0.57,0.3,0.79c0.2,0.22,0.41,0.33,0.65,0.33
		c0.82,0,1.98-0.68,3.49-2.03c1.51-1.35,2.5-2.9,2.96-4.62L369.35,167.48z"/>
	<path d="M390.95,180.84l0.62,0.84c-1.96,1.66-3.42,2.75-4.37,3.29c-1.32,0.75-2.36,1.12-3.12,1.12c-0.35,0-0.64-0.1-0.86-0.3
		c-0.22-0.2-0.33-0.42-0.33-0.67s0.08-0.66,0.24-1.23l0.77-2.68c-1.76,1.89-3.22,3.17-4.39,3.85c-1.17,0.67-2.23,1.01-3.16,1.01
		c-0.78,0-1.43-0.34-1.96-1.02s-0.79-1.68-0.79-3c0-2.08,0.71-4.48,2.14-7.18c1.43-2.71,3.02-4.71,4.77-6.01
		c1.75-1.3,3.35-1.95,4.8-1.95c0.32,0,0.81,0.05,1.45,0.15c0.69-2.85,1.35-4.93,1.98-6.24s1.44-2.44,2.44-3.39s2.13-1.69,3.42-2.2
		c1.28-0.52,2.48-0.78,3.59-0.78c0.59,0,1.05,0.15,1.41,0.46s0.53,0.7,0.53,1.16c0,0.45-0.16,0.82-0.48,1.11
		c-0.32,0.29-0.76,0.43-1.32,0.43c-0.37,0-1.05-0.07-2.05-0.22c-1-0.15-1.68-0.22-2.05-0.22c-0.51,0-0.97,0.16-1.35,0.47
		c-0.39,0.31-0.76,0.99-1.11,2.03c-0.23,0.66-0.77,2.76-1.6,6.31l-3.11,13.27c-0.37,1.57-0.55,2.61-0.55,3.12
		c0,0.56,0.21,0.84,0.64,0.84c0.26,0,0.57-0.09,0.92-0.29C388.55,182.65,389.51,181.95,390.95,180.84z M386.29,169.48
		c-1.17-0.26-2-0.4-2.48-0.4c-0.98,0-1.94,0.38-2.88,1.16s-1.84,2.26-2.71,4.48c-0.87,2.22-1.31,4.14-1.31,5.79
		c0,0.75,0.2,1.36,0.6,1.84c0.4,0.48,0.86,0.71,1.37,0.71c0.62,0,1.32-0.27,2.11-0.81c1.13-0.81,2.02-1.79,2.68-2.95
		c0.4-0.73,0.93-2.53,1.6-5.39L386.29,169.48z"/>
	<path d="M412.89,179.87l0.73,0.97c-3.59,3.41-6.67,5.12-9.23,5.12c-1.04,0-1.83-0.35-2.38-1.05c-0.55-0.7-0.82-1.83-0.82-3.38
		c0-3.13,0.95-6.25,2.86-9.36c2.14-3.53,4.69-5.3,7.67-5.3c1.04,0,1.83,0.26,2.38,0.78c0.55,0.52,0.82,1.23,0.82,2.14
		c0,0.95-0.33,1.89-0.99,2.81s-1.84,1.88-3.54,2.88c-0.85,0.48-2.67,1.36-5.45,2.62c-0.13,0.79-0.2,1.55-0.2,2.26
		c0,1.04,0.16,1.76,0.49,2.17c0.33,0.41,0.81,0.62,1.44,0.62c0.6,0,1.26-0.17,1.98-0.5C409.62,182.19,411.03,181.27,412.89,179.87z
		 M405.2,176.69c2.36-1.05,4.13-2.19,5.32-3.41c0.81-0.85,1.21-1.69,1.21-2.53c0-0.63-0.17-1.13-0.5-1.5
		c-0.33-0.37-0.76-0.56-1.29-0.56c-0.54,0-1.07,0.21-1.58,0.62c-0.69,0.54-1.27,1.36-1.74,2.46
		C405.95,173.38,405.48,175.02,405.2,176.69z"/>
	<path d="M425.14,166.91c1.3,0,2.31,0.25,3.02,0.76c0.71,0.5,1.07,1.09,1.07,1.75c0,0.4-0.15,0.74-0.45,1.03
		c-0.3,0.29-0.66,0.44-1.09,0.44c-0.28,0-0.52-0.06-0.72-0.19c-0.21-0.12-0.5-0.44-0.88-0.93c-0.72-0.95-1.43-1.43-2.13-1.43
		c-0.6,0-1.13,0.23-1.59,0.69c-0.46,0.46-0.69,1.04-0.69,1.72c0,0.6,0.15,1.18,0.44,1.74c0.29,0.56,1.03,1.47,2.22,2.73
		c1.63,1.73,2.44,3.37,2.44,4.92s-0.66,2.91-1.98,4.07s-3.02,1.74-5.1,1.74c-1.74,0-3.04-0.36-3.89-1.07
		c-0.85-0.71-1.27-1.59-1.27-2.63c0-0.51,0.16-0.94,0.48-1.27s0.72-0.51,1.19-0.51c0.41,0,0.76,0.14,1.05,0.41
		c0.29,0.27,0.44,0.59,0.44,0.96c0,0.15-0.01,0.34-0.03,0.57c-0.01,0.19-0.01,0.35-0.01,0.48c0,0.48,0.2,0.89,0.61,1.23
		c0.39,0.34,0.93,0.5,1.62,0.5c0.79,0,1.48-0.14,2.08-0.41c0.6-0.27,1.07-0.68,1.4-1.23c0.33-0.55,0.5-1.09,0.5-1.63
		c0-0.53-0.16-1.05-0.47-1.58c-0.32-0.53-1.02-1.4-2.12-2.61c-1.52-1.7-2.29-3.33-2.29-4.89c0-1.43,0.58-2.69,1.74-3.76
		S423.36,166.91,425.14,166.91z"/>
	<path d="M438.1,172.07l-0.75-0.77c1.88-1.8,3.37-2.99,4.49-3.58s2.07-0.88,2.86-0.88c0.31,0,0.55,0.07,0.72,0.2
		c0.18,0.13,0.26,0.29,0.26,0.46c0,0.13-0.04,0.37-0.11,0.7l-0.99,4.42c1.49-1.66,3.36-3.2,5.62-4.64c1.2-0.75,2.19-1.12,2.96-1.12
		c0.57,0,1.02,0.18,1.34,0.55c0.32,0.37,0.48,0.89,0.48,1.58c0,0.45-0.07,0.97-0.2,1.54c-0.23,0.95-0.85,3.03-1.84,6.22
		c-0.93,2.99-1.4,4.97-1.4,5.95c0,0.3,0.04,0.53,0.13,0.68s0.21,0.23,0.37,0.23c0.42,0,1.09-0.41,2-1.23
		c0.64-0.59,1.29-1.13,1.93-1.63l0.55,0.79c-1.35,1.49-2.75,2.68-4.2,3.59c-0.92,0.58-1.68,0.87-2.29,0.87c-0.56,0-0.99-0.2-1.3-0.6
		c-0.31-0.4-0.46-1.06-0.46-1.97c0-1.3,0.81-4.55,2.44-9.73c0.5-1.85,0.75-2.92,0.75-3.23c0-0.45-0.27-0.68-0.81-0.68
		c-0.59,0-1.34,0.31-2.26,0.92c-1.38,0.91-2.53,1.98-3.45,3.21c-0.59,0.79-1.08,2.05-1.47,3.78l-1.78,7.68h-3.27
		c0.62-2.2,1.15-4.31,1.6-6.32l1.96-8.36c0.07-0.34,0.11-0.58,0.11-0.73c0-0.4-0.15-0.59-0.44-0.59c-0.23,0-0.57,0.16-1.01,0.46
		C439.74,170.46,438.89,171.2,438.1,172.07z"/>
	<path d="M471.81,167.48h3.13l-2.07,7.68c-1.22,4.46-1.82,7-1.82,7.61c0,0.28,0.07,0.49,0.2,0.64s0.28,0.22,0.44,0.22
		c0.25,0,0.54-0.11,0.88-0.33c0.48-0.34,1.4-1.19,2.75-2.55l0.72,0.81c-2.94,3.06-5.11,4.59-6.5,4.59c-0.47,0-0.87-0.18-1.2-0.54
		c-0.33-0.36-0.49-0.87-0.49-1.53c0-0.76,0.16-1.78,0.48-3.05c-1.3,1.49-2.91,2.81-4.83,3.93c-1.27,0.75-2.38,1.12-3.32,1.12
		c-0.51,0-0.92-0.17-1.21-0.51c-0.29-0.34-0.44-0.87-0.44-1.61c0-0.57,0.07-1.19,0.2-1.85c0.19-0.92,0.67-2.78,1.45-5.57
		c0.98-3.53,1.47-5.65,1.47-6.36c0-0.41-0.15-0.62-0.44-0.62c-0.26,0-0.62,0.14-1.08,0.41c-0.45,0.27-1.23,0.93-2.33,1.97
		l-0.97-0.77c1.96-1.76,3.46-2.91,4.49-3.46c1.03-0.55,1.86-0.82,2.49-0.82c0.35,0,0.64,0.13,0.86,0.38s0.33,0.66,0.33,1.2
		c0,1.01-0.53,3.5-1.58,7.46c-0.94,3.56-1.41,5.6-1.41,6.09c0,0.31,0.1,0.57,0.3,0.79c0.2,0.22,0.41,0.33,0.65,0.33
		c0.82,0,1.98-0.68,3.49-2.03c1.51-1.35,2.5-2.9,2.96-4.62L471.81,167.48z"/>
	<path d="M488.01,179.87l0.73,0.97c-3.59,3.41-6.67,5.12-9.23,5.12c-1.04,0-1.83-0.35-2.38-1.05c-0.55-0.7-0.82-1.83-0.82-3.38
		c0-3.13,0.95-6.25,2.86-9.36c2.14-3.53,4.69-5.3,7.67-5.3c1.04,0,1.83,0.26,2.38,0.78c0.55,0.52,0.82,1.23,0.82,2.14
		c0,0.95-0.33,1.89-0.99,2.81s-1.84,1.88-3.54,2.88c-0.85,0.48-2.67,1.36-5.45,2.62c-0.13,0.79-0.2,1.55-0.2,2.26
		c0,1.04,0.16,1.76,0.49,2.17c0.33,0.41,0.81,0.62,1.44,0.62c0.6,0,1.26-0.17,1.98-0.5C484.74,182.19,486.15,181.27,488.01,179.87z
		 M480.32,176.69c2.36-1.05,4.13-2.19,5.32-3.41c0.81-0.85,1.21-1.69,1.21-2.53c0-0.63-0.17-1.13-0.5-1.5
		c-0.33-0.37-0.76-0.56-1.29-0.56c-0.54,0-1.07,0.21-1.58,0.62c-0.69,0.54-1.27,1.36-1.74,2.46
		C481.07,173.38,480.6,175.02,480.32,176.69z"/>
	<path d="M500.26,166.91c1.3,0,2.31,0.25,3.02,0.76c0.71,0.5,1.07,1.09,1.07,1.75c0,0.4-0.15,0.74-0.45,1.03
		c-0.3,0.29-0.66,0.44-1.09,0.44c-0.28,0-0.52-0.06-0.73-0.19c-0.21-0.12-0.5-0.44-0.88-0.93c-0.72-0.95-1.43-1.43-2.13-1.43
		c-0.6,0-1.13,0.23-1.59,0.69c-0.46,0.46-0.69,1.04-0.69,1.72c0,0.6,0.15,1.18,0.44,1.74c0.29,0.56,1.03,1.47,2.22,2.73
		c1.63,1.73,2.44,3.37,2.44,4.92s-0.66,2.91-1.98,4.07s-3.02,1.74-5.1,1.74c-1.74,0-3.04-0.36-3.89-1.07
		c-0.85-0.71-1.27-1.59-1.27-2.63c0-0.51,0.16-0.94,0.48-1.27s0.72-0.51,1.19-0.51c0.41,0,0.76,0.14,1.05,0.41
		c0.29,0.27,0.44,0.59,0.44,0.96c0,0.15-0.01,0.34-0.03,0.57c-0.01,0.19-0.01,0.35-0.01,0.48c0,0.48,0.2,0.89,0.61,1.23
		c0.39,0.34,0.93,0.5,1.62,0.5c0.79,0,1.48-0.14,2.08-0.41s1.07-0.68,1.4-1.23s0.5-1.09,0.5-1.63c0-0.53-0.16-1.05-0.47-1.58
		c-0.32-0.53-1.02-1.4-2.12-2.61c-1.52-1.7-2.29-3.33-2.29-4.89c0-1.43,0.58-2.69,1.74-3.76S498.48,166.91,500.26,166.91z"/>
	<path d="M509.99,163.53l3.49-1.34l-1.58,6.15h4.55l-0.35,1.56h-4.55l-1.92,7.36c-0.61,2.21-0.91,3.75-0.91,4.61
		c0,0.4,0.08,0.68,0.25,0.86c0.17,0.18,0.4,0.26,0.69,0.26c0.45,0,1.15-0.27,2.09-0.81c1.23-0.72,2.4-1.53,3.52-2.44l0.83,1.01
		c-3.21,2.42-5.35,3.9-6.44,4.44c-1.08,0.54-1.96,0.81-2.62,0.81c-0.54,0-0.97-0.2-1.29-0.59c-0.32-0.39-0.47-1.04-0.47-1.93
		c0-1.05,0.28-2.67,0.83-4.83l2.24-8.74h-3.56l0.4-1.56h3.56L509.99,163.53z"/>
	<path d="M521.13,185.39h-3.27l1.54-5.91c0.75-2.9,1.4-5.65,1.96-8.26c0.13-0.64,0.2-1.05,0.2-1.21c0-0.35-0.16-0.53-0.48-0.53
		c-0.22,0-0.56,0.15-1.01,0.45c-0.45,0.3-1.27,1.04-2.46,2.23l-0.68-0.77c1.41-1.51,2.81-2.64,4.21-3.4
		c1.4-0.75,2.47-1.13,3.22-1.13c0.26,0,0.47,0.06,0.63,0.19c0.15,0.12,0.23,0.28,0.23,0.47c0,0.19-0.1,0.7-0.29,1.52l-0.96,3.95
		c1.48-2.34,3.16-4.34,5.02-6c0.9-0.79,1.64-1.19,2.25-1.19c0.44,0,0.81,0.14,1.1,0.43c0.29,0.29,0.44,0.62,0.44,1
		c0,0.4-0.14,0.73-0.43,1.01c-0.29,0.28-1,0.61-2.14,0.99c-1.08,0.37-1.96,0.81-2.65,1.32s-1.43,1.3-2.24,2.35
		c-0.81,1.06-1.38,1.97-1.7,2.76c-0.32,0.78-0.81,2.6-1.48,5.46L521.13,185.39z"/>
	<path d="M544.37,166.54l1.45-0.31l-1.65,5.56c-0.66,2.21-1.28,4.76-1.87,7.65c-0.32,1.57-0.48,2.58-0.48,3.03s0.18,0.68,0.55,0.68
		c0.23,0,0.61-0.15,1.12-0.46c0.91-0.54,1.78-1.21,2.61-2.02l0.7,0.86c-1.67,1.52-2.74,2.45-3.21,2.77
		c-0.94,0.64-1.83,1.12-2.68,1.43c-0.56,0.2-1.1,0.31-1.63,0.31c-0.38,0-0.67-0.09-0.86-0.26s-0.29-0.43-0.29-0.77
		c0-0.22,0.06-0.52,0.18-0.9l0.88-2.99c-1.26,1.51-2.76,2.81-4.5,3.89c-1.07,0.67-2.05,1.01-2.94,1.01c-0.85,0-1.5-0.3-1.96-0.9
		c-0.62-0.81-0.92-1.86-0.92-3.16c0-1.55,0.41-3.28,1.24-5.19c0.83-1.9,1.94-3.63,3.33-5.19s2.86-2.7,4.39-3.43
		c1.19-0.56,2.71-0.84,4.57-0.84c0.47,0,0.95,0.03,1.43,0.09L544.37,166.54z M541.64,169.9c-0.79-0.16-1.46-0.24-2-0.24
		c-1.32,0-2.47,0.36-3.45,1.09c-0.98,0.72-1.89,2.03-2.74,3.91c-0.84,1.88-1.26,3.76-1.26,5.64c0,1,0.17,1.71,0.5,2.15
		s0.78,0.66,1.32,0.66c1.01,0,2.09-0.55,3.25-1.64c1.16-1.09,2.01-2.66,2.55-4.71L541.64,169.9z"/>
	<path d="M556.16,172.36l-0.86-0.88c1.33-1.6,2.66-2.78,3.98-3.54s2.46-1.14,3.43-1.14c0.37,0,0.66,0.09,0.87,0.27
		c0.21,0.18,0.32,0.45,0.32,0.8c0,0.42-0.05,0.86-0.14,1.31c-0.1,0.45-0.39,1.51-0.89,3.18c2.24-2.24,3.77-3.63,4.59-4.15
		c1.38-0.89,2.64-1.34,3.78-1.34c0.75,0,1.38,0.35,1.89,1.05s0.77,1.77,0.77,3.19c0,3.54-1.11,6.91-3.32,10.11
		c-2.21,3.19-4.66,4.79-7.33,4.79c-1.05,0-2.11-0.29-3.16-0.86l-1.88,7.25c-0.12,0.44-0.18,0.8-0.18,1.08
		c0,0.54,0.21,0.93,0.62,1.16c0.63,0.37,1.96,0.67,3.98,0.9l-0.29,1.1c-2.36-0.19-4.21-0.29-5.56-0.29c-1.39,0-3.19,0.09-5.41,0.29
		l0.29-1.1c1.11-0.12,1.92-0.42,2.43-0.92c0.51-0.5,0.91-1.38,1.22-2.66l3.98-16.68c0.75-3.11,1.12-4.83,1.12-5.19
		c0-0.38-0.18-0.57-0.55-0.57C559.2,169.53,557.97,170.47,556.16,172.36z M560.61,182.73c1.16,1.16,2.34,1.74,3.55,1.74
		c1.76,0,3.29-1.37,4.62-4.11s1.99-5.41,1.99-8.02c0-0.83-0.19-1.47-0.56-1.9c-0.37-0.43-0.87-0.65-1.5-0.65
		c-0.7,0-1.49,0.34-2.37,1.03c-1.36,1.07-2.4,2.13-3.11,3.19c-0.51,0.76-0.99,2.08-1.45,3.96L560.61,182.73z"/>
	<path d="M578.52,185.39h-3.27l1.54-5.91c0.75-2.9,1.4-5.65,1.96-8.26c0.13-0.64,0.2-1.05,0.2-1.21c0-0.35-0.16-0.53-0.48-0.53
		c-0.22,0-0.56,0.15-1.01,0.45c-0.45,0.3-1.27,1.04-2.46,2.23l-0.68-0.77c1.41-1.51,2.81-2.64,4.21-3.4
		c1.4-0.75,2.47-1.13,3.22-1.13c0.26,0,0.47,0.06,0.63,0.19c0.15,0.12,0.23,0.28,0.23,0.47c0,0.19-0.1,0.7-0.29,1.52l-0.96,3.95
		c1.48-2.34,3.16-4.34,5.02-6c0.89-0.79,1.64-1.19,2.25-1.19c0.44,0,0.81,0.14,1.1,0.43c0.29,0.29,0.44,0.62,0.44,1
		c0,0.4-0.14,0.73-0.43,1.01c-0.29,0.28-1,0.61-2.14,0.99c-1.08,0.37-1.96,0.81-2.65,1.32s-1.43,1.3-2.24,2.35
		c-0.81,1.06-1.38,1.97-1.7,2.76c-0.32,0.78-0.81,2.6-1.47,5.46L578.52,185.39z"/>
	<path d="M587.48,172.01l-0.97-0.75c1.46-1.61,2.8-2.76,4-3.44c1.21-0.68,2.23-1.02,3.08-1.02c0.47,0,0.83,0.1,1.08,0.31
		c0.25,0.21,0.37,0.48,0.37,0.83c0,0.42-0.48,2.23-1.42,5.41c-1.55,5.2-2.32,8.33-2.32,9.4c0,0.21,0.05,0.38,0.15,0.52
		c0.1,0.14,0.21,0.21,0.33,0.21c0.47,0,1.67-0.91,3.6-2.72l0.86,0.84c-2.01,1.89-3.47,3.1-4.39,3.62s-1.68,0.79-2.26,0.79
		c-0.51,0-0.92-0.16-1.22-0.48c-0.3-0.32-0.45-0.77-0.45-1.34c0-1.83,1.1-6.31,3.3-13.42c0.1-0.34,0.15-0.64,0.15-0.9
		c0-0.29-0.13-0.44-0.4-0.44c-0.29,0-0.63,0.12-1,0.35C589.6,170,588.77,170.75,587.48,172.01z M596.11,157.46
		c0.45,0,0.83,0.15,1.12,0.45c0.29,0.3,0.44,0.68,0.44,1.15c0,0.64-0.22,1.21-0.67,1.7c-0.45,0.49-0.95,0.74-1.51,0.74
		c-0.44,0-0.81-0.15-1.1-0.46s-0.44-0.71-0.44-1.21c0-0.66,0.21-1.22,0.64-1.68C595.02,157.69,595.53,157.46,596.11,157.46z"/>
	<path d="M607.29,166.91c1.44,0,2.63,0.57,3.58,1.71s1.43,2.73,1.43,4.77c0,3.25-1.14,6.17-3.43,8.76c-2.29,2.59-4.7,3.88-7.25,3.88
		c-1.57,0-2.83-0.51-3.79-1.54c-0.96-1.03-1.44-2.42-1.44-4.2c0-3.08,0.88-5.92,2.64-8.53C601.24,168.53,604,166.91,607.29,166.91z
		 M605.43,168.56c-1.25,0-2.45,0.89-3.62,2.67c-1.16,1.78-1.75,4.24-1.75,7.37c0,1.9,0.36,3.41,1.08,4.5
		c0.53,0.81,1.23,1.21,2.11,1.21c1.23,0,2.35-0.76,3.36-2.29c1.29-1.98,1.93-4.43,1.93-7.36c0-2.2-0.3-3.76-0.89-4.7
		C607.06,169.03,606.32,168.56,605.43,168.56z"/>
	<path d="M617.29,185.39h-3.27l1.54-5.91c0.75-2.9,1.4-5.65,1.96-8.26c0.13-0.64,0.2-1.05,0.2-1.21c0-0.35-0.16-0.53-0.48-0.53
		c-0.22,0-0.56,0.15-1.01,0.45c-0.45,0.3-1.27,1.04-2.46,2.23l-0.68-0.77c1.41-1.51,2.81-2.64,4.21-3.4
		c1.4-0.75,2.47-1.13,3.22-1.13c0.26,0,0.47,0.06,0.63,0.19c0.15,0.12,0.23,0.28,0.23,0.47c0,0.19-0.1,0.7-0.29,1.52L620.1,173
		c1.48-2.34,3.16-4.34,5.02-6c0.9-0.79,1.64-1.19,2.25-1.19c0.44,0,0.81,0.14,1.1,0.43c0.29,0.29,0.44,0.62,0.44,1
		c0,0.4-0.14,0.73-0.43,1.01c-0.29,0.28-1,0.61-2.14,0.99c-1.08,0.37-1.96,0.81-2.65,1.32s-1.43,1.3-2.24,2.35
		c-0.81,1.06-1.38,1.97-1.7,2.76c-0.32,0.78-0.81,2.6-1.48,5.46L617.29,185.39z"/>
	<path d="M626.25,172.01l-0.97-0.75c1.46-1.61,2.8-2.76,4-3.44c1.21-0.68,2.24-1.02,3.08-1.02c0.47,0,0.83,0.1,1.08,0.31
		c0.25,0.21,0.37,0.48,0.37,0.83c0,0.42-0.47,2.23-1.42,5.41c-1.55,5.2-2.32,8.33-2.32,9.4c0,0.21,0.05,0.38,0.15,0.52
		c0.1,0.14,0.21,0.21,0.33,0.21c0.47,0,1.67-0.91,3.6-2.72l0.86,0.84c-2.01,1.89-3.47,3.1-4.39,3.62c-0.92,0.53-1.68,0.79-2.26,0.79
		c-0.51,0-0.92-0.16-1.22-0.48c-0.3-0.32-0.45-0.77-0.45-1.34c0-1.83,1.1-6.31,3.3-13.42c0.1-0.34,0.15-0.64,0.15-0.9
		c0-0.29-0.13-0.44-0.4-0.44c-0.29,0-0.63,0.12-1,0.35C628.37,170,627.53,170.75,626.25,172.01z M634.88,157.46
		c0.45,0,0.83,0.15,1.12,0.45c0.29,0.3,0.44,0.68,0.44,1.15c0,0.64-0.22,1.21-0.67,1.7c-0.45,0.49-0.95,0.74-1.5,0.74
		c-0.44,0-0.81-0.15-1.1-0.46s-0.44-0.71-0.44-1.21c0-0.66,0.21-1.22,0.64-1.68C633.79,157.69,634.29,157.46,634.88,157.46z"/>
	<path d="M652.08,180.84l0.62,0.84c-1.96,1.66-3.42,2.75-4.37,3.29c-1.32,0.75-2.36,1.12-3.12,1.12c-0.35,0-0.64-0.1-0.86-0.3
		c-0.22-0.2-0.33-0.42-0.33-0.67s0.08-0.66,0.24-1.23l0.77-2.68c-1.76,1.89-3.22,3.17-4.39,3.85c-1.17,0.67-2.23,1.01-3.16,1.01
		c-0.78,0-1.43-0.34-1.96-1.02s-0.79-1.68-0.79-3c0-2.08,0.71-4.48,2.14-7.18c1.43-2.71,3.02-4.71,4.77-6.01
		c1.75-1.3,3.35-1.95,4.8-1.95c0.32,0,0.8,0.05,1.45,0.15c0.69-2.85,1.35-4.93,1.98-6.24c0.63-1.31,1.44-2.44,2.44-3.39
		s2.13-1.69,3.42-2.2c1.28-0.52,2.48-0.78,3.59-0.78c0.59,0,1.05,0.15,1.41,0.46s0.53,0.7,0.53,1.16c0,0.45-0.16,0.82-0.48,1.11
		c-0.32,0.29-0.76,0.43-1.32,0.43c-0.37,0-1.05-0.07-2.05-0.22c-1-0.15-1.68-0.22-2.05-0.22c-0.51,0-0.97,0.16-1.35,0.47
		c-0.39,0.31-0.76,0.99-1.11,2.03c-0.23,0.66-0.77,2.76-1.6,6.31l-3.11,13.27c-0.37,1.57-0.55,2.61-0.55,3.12
		c0,0.56,0.21,0.84,0.64,0.84c0.26,0,0.57-0.09,0.92-0.29C649.68,182.65,650.64,181.95,652.08,180.84z M647.42,169.48
		c-1.17-0.26-2-0.4-2.48-0.4c-0.98,0-1.94,0.38-2.88,1.16s-1.84,2.26-2.71,4.48c-0.87,2.22-1.31,4.14-1.31,5.79
		c0,0.75,0.2,1.36,0.6,1.84c0.4,0.48,0.86,0.71,1.37,0.71c0.62,0,1.32-0.27,2.11-0.81c1.13-0.81,2.02-1.79,2.68-2.95
		c0.4-0.73,0.93-2.53,1.6-5.39L647.42,169.48z"/>
	<path d="M668.77,166.54l1.45-0.31l-1.65,5.56c-0.66,2.21-1.28,4.76-1.87,7.65c-0.32,1.57-0.48,2.58-0.48,3.03s0.18,0.68,0.55,0.68
		c0.23,0,0.61-0.15,1.12-0.46c0.91-0.54,1.78-1.21,2.62-2.02l0.7,0.86c-1.67,1.52-2.74,2.45-3.21,2.77
		c-0.94,0.64-1.83,1.12-2.68,1.43c-0.56,0.2-1.1,0.31-1.63,0.31c-0.38,0-0.67-0.09-0.86-0.26s-0.29-0.43-0.29-0.77
		c0-0.22,0.06-0.52,0.18-0.9l0.88-2.99c-1.26,1.51-2.76,2.81-4.5,3.89c-1.07,0.67-2.05,1.01-2.94,1.01c-0.85,0-1.5-0.3-1.96-0.9
		c-0.62-0.81-0.92-1.86-0.92-3.16c0-1.55,0.41-3.28,1.24-5.19c0.83-1.9,1.94-3.63,3.33-5.19c1.39-1.55,2.86-2.7,4.39-3.43
		c1.19-0.56,2.71-0.84,4.57-0.84c0.47,0,0.94,0.03,1.43,0.09L668.77,166.54z M666.05,169.9c-0.79-0.16-1.46-0.24-2-0.24
		c-1.32,0-2.47,0.36-3.45,1.09c-0.98,0.72-1.89,2.03-2.74,3.91c-0.84,1.88-1.26,3.76-1.26,5.64c0,1,0.17,1.71,0.5,2.15
		s0.78,0.66,1.32,0.66c1.01,0,2.09-0.55,3.25-1.64c1.16-1.09,2.01-2.66,2.55-4.71L666.05,169.9z"/>
	<path d="M688.43,180.84l0.62,0.84c-1.96,1.66-3.42,2.75-4.37,3.29c-1.32,0.75-2.36,1.12-3.12,1.12c-0.35,0-0.64-0.1-0.86-0.3
		c-0.22-0.2-0.33-0.42-0.33-0.67s0.08-0.66,0.24-1.23l0.77-2.68c-1.76,1.89-3.22,3.17-4.39,3.85c-1.17,0.67-2.23,1.01-3.16,1.01
		c-0.78,0-1.43-0.34-1.96-1.02s-0.79-1.68-0.79-3c0-2.08,0.71-4.48,2.14-7.18c1.43-2.71,3.02-4.71,4.77-6.01
		c1.75-1.3,3.35-1.95,4.8-1.95c0.32,0,0.8,0.05,1.45,0.15c0.69-2.85,1.35-4.93,1.98-6.24c0.63-1.31,1.44-2.44,2.44-3.39
		s2.13-1.69,3.42-2.2c1.28-0.52,2.48-0.78,3.59-0.78c0.59,0,1.05,0.15,1.41,0.46s0.53,0.7,0.53,1.16c0,0.45-0.16,0.82-0.48,1.11
		c-0.32,0.29-0.76,0.43-1.32,0.43c-0.37,0-1.05-0.07-2.05-0.22c-1-0.15-1.68-0.22-2.05-0.22c-0.51,0-0.97,0.16-1.35,0.47
		c-0.39,0.31-0.76,0.99-1.11,2.03c-0.23,0.66-0.77,2.76-1.6,6.31l-3.11,13.27c-0.37,1.57-0.55,2.61-0.55,3.12
		c0,0.56,0.21,0.84,0.64,0.84c0.26,0,0.57-0.09,0.92-0.29C686.03,182.65,687,181.95,688.43,180.84z M683.77,169.48
		c-1.17-0.26-2-0.4-2.48-0.4c-0.98,0-1.94,0.38-2.88,1.16s-1.84,2.26-2.71,4.48c-0.87,2.22-1.31,4.14-1.31,5.79
		c0,0.75,0.2,1.36,0.6,1.84c0.4,0.48,0.86,0.71,1.37,0.71c0.62,0,1.32-0.27,2.11-0.81c1.13-0.81,2.02-1.79,2.68-2.95
		c0.4-0.73,0.93-2.53,1.6-5.39L683.77,169.48z"/>
</g>
</svg>
